G04 #@! TF.GenerationSoftware,KiCad,Pcbnew,(5.1.2-1)-1*
G04 #@! TF.CreationDate,2019-07-07T21:57:11-07:00*
G04 #@! TF.ProjectId,kicad,6b696361-642e-46b6-9963-61645f706362,v01*
G04 #@! TF.SameCoordinates,Original*
G04 #@! TF.FileFunction,Soldermask,Top*
G04 #@! TF.FilePolarity,Negative*
%FSLAX46Y46*%
G04 Gerber Fmt 4.6, Leading zero omitted, Abs format (unit mm)*
G04 Created by KiCad (PCBNEW (5.1.2-1)-1) date 2019-07-07 21:57:11*
%MOMM*%
%LPD*%
G04 APERTURE LIST*
%ADD10C,0.100000*%
G04 APERTURE END LIST*
D10*
G36*
X117071728Y-148695024D02*
G01*
X117186469Y-148717847D01*
X117402634Y-148807385D01*
X117597179Y-148937376D01*
X117762624Y-149102821D01*
X117892615Y-149297366D01*
X117982153Y-149513531D01*
X118027800Y-149743013D01*
X118027800Y-149976987D01*
X117982153Y-150206469D01*
X117892615Y-150422634D01*
X117762624Y-150617179D01*
X117597179Y-150782624D01*
X117402634Y-150912615D01*
X117186470Y-151002153D01*
X117169940Y-151005441D01*
X117146116Y-151012668D01*
X117124159Y-151024404D01*
X117104914Y-151040198D01*
X117089120Y-151059443D01*
X117077384Y-151081399D01*
X117070157Y-151105223D01*
X117067717Y-151130000D01*
X117070157Y-151154776D01*
X117077384Y-151178600D01*
X117089120Y-151200557D01*
X117104914Y-151219802D01*
X117124159Y-151235596D01*
X117146115Y-151247332D01*
X117169940Y-151254559D01*
X117186470Y-151257847D01*
X117402634Y-151347385D01*
X117597179Y-151477376D01*
X117762624Y-151642821D01*
X117892615Y-151837366D01*
X117982153Y-152053531D01*
X118027800Y-152283013D01*
X118027800Y-152516987D01*
X117982153Y-152746469D01*
X117892615Y-152962634D01*
X117762624Y-153157179D01*
X117597179Y-153322624D01*
X117402634Y-153452615D01*
X117186469Y-153542153D01*
X117071728Y-153564976D01*
X116956988Y-153587800D01*
X116723012Y-153587800D01*
X116608272Y-153564976D01*
X116493531Y-153542153D01*
X116277366Y-153452615D01*
X116082821Y-153322624D01*
X115917376Y-153157179D01*
X115787385Y-152962634D01*
X115697847Y-152746469D01*
X115652200Y-152516987D01*
X115652200Y-152283013D01*
X115697847Y-152053531D01*
X115787385Y-151837366D01*
X115917376Y-151642821D01*
X116082821Y-151477376D01*
X116277366Y-151347385D01*
X116493530Y-151257847D01*
X116510060Y-151254559D01*
X116533884Y-151247332D01*
X116555841Y-151235596D01*
X116575086Y-151219802D01*
X116590880Y-151200557D01*
X116602616Y-151178601D01*
X116609843Y-151154777D01*
X116612283Y-151130000D01*
X116609843Y-151105224D01*
X116602616Y-151081400D01*
X116590880Y-151059443D01*
X116575086Y-151040198D01*
X116555841Y-151024404D01*
X116533885Y-151012668D01*
X116510060Y-151005441D01*
X116493530Y-151002153D01*
X116277366Y-150912615D01*
X116082821Y-150782624D01*
X115917376Y-150617179D01*
X115787385Y-150422634D01*
X115697847Y-150206469D01*
X115652200Y-149976987D01*
X115652200Y-149743013D01*
X115697847Y-149513531D01*
X115787385Y-149297366D01*
X115917376Y-149102821D01*
X116082821Y-148937376D01*
X116277366Y-148807385D01*
X116493531Y-148717847D01*
X116608272Y-148695024D01*
X116723012Y-148672200D01*
X116956988Y-148672200D01*
X117071728Y-148695024D01*
X117071728Y-148695024D01*
G37*
G36*
X106911728Y-148695024D02*
G01*
X107026469Y-148717847D01*
X107242634Y-148807385D01*
X107437179Y-148937376D01*
X107602624Y-149102821D01*
X107732615Y-149297366D01*
X107822153Y-149513531D01*
X107867800Y-149743013D01*
X107867800Y-149976987D01*
X107822153Y-150206469D01*
X107732615Y-150422634D01*
X107602624Y-150617179D01*
X107437179Y-150782624D01*
X107242634Y-150912615D01*
X107026470Y-151002153D01*
X107009940Y-151005441D01*
X106986116Y-151012668D01*
X106964159Y-151024404D01*
X106944914Y-151040198D01*
X106929120Y-151059443D01*
X106917384Y-151081399D01*
X106910157Y-151105223D01*
X106907717Y-151130000D01*
X106910157Y-151154776D01*
X106917384Y-151178600D01*
X106929120Y-151200557D01*
X106944914Y-151219802D01*
X106964159Y-151235596D01*
X106986115Y-151247332D01*
X107009940Y-151254559D01*
X107026470Y-151257847D01*
X107242634Y-151347385D01*
X107437179Y-151477376D01*
X107602624Y-151642821D01*
X107732615Y-151837366D01*
X107822153Y-152053531D01*
X107867800Y-152283013D01*
X107867800Y-152516987D01*
X107822153Y-152746469D01*
X107732615Y-152962634D01*
X107602624Y-153157179D01*
X107437179Y-153322624D01*
X107242634Y-153452615D01*
X107026469Y-153542153D01*
X106911728Y-153564976D01*
X106796988Y-153587800D01*
X106563012Y-153587800D01*
X106448272Y-153564976D01*
X106333531Y-153542153D01*
X106117366Y-153452615D01*
X105922821Y-153322624D01*
X105757376Y-153157179D01*
X105627385Y-152962634D01*
X105537847Y-152746469D01*
X105492200Y-152516987D01*
X105492200Y-152283013D01*
X105537847Y-152053531D01*
X105627385Y-151837366D01*
X105757376Y-151642821D01*
X105922821Y-151477376D01*
X106117366Y-151347385D01*
X106333530Y-151257847D01*
X106350060Y-151254559D01*
X106373884Y-151247332D01*
X106395841Y-151235596D01*
X106415086Y-151219802D01*
X106430880Y-151200557D01*
X106442616Y-151178601D01*
X106449843Y-151154777D01*
X106452283Y-151130000D01*
X106449843Y-151105224D01*
X106442616Y-151081400D01*
X106430880Y-151059443D01*
X106415086Y-151040198D01*
X106395841Y-151024404D01*
X106373885Y-151012668D01*
X106350060Y-151005441D01*
X106333530Y-151002153D01*
X106117366Y-150912615D01*
X105922821Y-150782624D01*
X105757376Y-150617179D01*
X105627385Y-150422634D01*
X105537847Y-150206469D01*
X105492200Y-149976987D01*
X105492200Y-149743013D01*
X105537847Y-149513531D01*
X105627385Y-149297366D01*
X105757376Y-149102821D01*
X105922821Y-148937376D01*
X106117366Y-148807385D01*
X106333531Y-148717847D01*
X106448272Y-148695024D01*
X106563012Y-148672200D01*
X106796988Y-148672200D01*
X106911728Y-148695024D01*
X106911728Y-148695024D01*
G37*
G36*
X117071728Y-140059024D02*
G01*
X117186469Y-140081847D01*
X117402634Y-140171385D01*
X117597179Y-140301376D01*
X117762624Y-140466821D01*
X117892615Y-140661366D01*
X117982153Y-140877531D01*
X118027800Y-141107013D01*
X118027800Y-141340987D01*
X117982153Y-141570469D01*
X117892615Y-141786634D01*
X117762624Y-141981179D01*
X117597179Y-142146624D01*
X117402634Y-142276615D01*
X117186470Y-142366153D01*
X117169940Y-142369441D01*
X117146116Y-142376668D01*
X117124159Y-142388404D01*
X117104914Y-142404198D01*
X117089120Y-142423443D01*
X117077384Y-142445399D01*
X117070157Y-142469223D01*
X117067717Y-142494000D01*
X117070157Y-142518776D01*
X117077384Y-142542600D01*
X117089120Y-142564557D01*
X117104914Y-142583802D01*
X117124159Y-142599596D01*
X117146115Y-142611332D01*
X117169940Y-142618559D01*
X117186470Y-142621847D01*
X117402634Y-142711385D01*
X117597179Y-142841376D01*
X117762624Y-143006821D01*
X117892615Y-143201366D01*
X117982153Y-143417531D01*
X118027800Y-143647013D01*
X118027800Y-143880987D01*
X117982153Y-144110469D01*
X117892615Y-144326634D01*
X117762624Y-144521179D01*
X117597179Y-144686624D01*
X117402634Y-144816615D01*
X117186469Y-144906153D01*
X117071728Y-144928977D01*
X116956988Y-144951800D01*
X116723012Y-144951800D01*
X116608272Y-144928977D01*
X116493531Y-144906153D01*
X116277366Y-144816615D01*
X116082821Y-144686624D01*
X115917376Y-144521179D01*
X115787385Y-144326634D01*
X115697847Y-144110469D01*
X115652200Y-143880987D01*
X115652200Y-143647013D01*
X115697847Y-143417531D01*
X115787385Y-143201366D01*
X115917376Y-143006821D01*
X116082821Y-142841376D01*
X116277366Y-142711385D01*
X116493530Y-142621847D01*
X116510060Y-142618559D01*
X116533884Y-142611332D01*
X116555841Y-142599596D01*
X116575086Y-142583802D01*
X116590880Y-142564557D01*
X116602616Y-142542601D01*
X116609843Y-142518777D01*
X116612283Y-142494000D01*
X116609843Y-142469224D01*
X116602616Y-142445400D01*
X116590880Y-142423443D01*
X116575086Y-142404198D01*
X116555841Y-142388404D01*
X116533885Y-142376668D01*
X116510060Y-142369441D01*
X116493530Y-142366153D01*
X116277366Y-142276615D01*
X116082821Y-142146624D01*
X115917376Y-141981179D01*
X115787385Y-141786634D01*
X115697847Y-141570469D01*
X115652200Y-141340987D01*
X115652200Y-141107013D01*
X115697847Y-140877531D01*
X115787385Y-140661366D01*
X115917376Y-140466821D01*
X116082821Y-140301376D01*
X116277366Y-140171385D01*
X116493531Y-140081847D01*
X116608272Y-140059024D01*
X116723012Y-140036200D01*
X116956988Y-140036200D01*
X117071728Y-140059024D01*
X117071728Y-140059024D01*
G37*
G36*
X106911728Y-140059024D02*
G01*
X107026469Y-140081847D01*
X107242634Y-140171385D01*
X107437179Y-140301376D01*
X107602624Y-140466821D01*
X107732615Y-140661366D01*
X107822153Y-140877531D01*
X107867800Y-141107013D01*
X107867800Y-141340987D01*
X107822153Y-141570469D01*
X107732615Y-141786634D01*
X107602624Y-141981179D01*
X107437179Y-142146624D01*
X107242634Y-142276615D01*
X107026470Y-142366153D01*
X107009940Y-142369441D01*
X106986116Y-142376668D01*
X106964159Y-142388404D01*
X106944914Y-142404198D01*
X106929120Y-142423443D01*
X106917384Y-142445399D01*
X106910157Y-142469223D01*
X106907717Y-142494000D01*
X106910157Y-142518776D01*
X106917384Y-142542600D01*
X106929120Y-142564557D01*
X106944914Y-142583802D01*
X106964159Y-142599596D01*
X106986115Y-142611332D01*
X107009940Y-142618559D01*
X107026470Y-142621847D01*
X107242634Y-142711385D01*
X107437179Y-142841376D01*
X107602624Y-143006821D01*
X107732615Y-143201366D01*
X107822153Y-143417531D01*
X107867800Y-143647013D01*
X107867800Y-143880987D01*
X107822153Y-144110469D01*
X107732615Y-144326634D01*
X107602624Y-144521179D01*
X107437179Y-144686624D01*
X107242634Y-144816615D01*
X107026469Y-144906153D01*
X106911728Y-144928977D01*
X106796988Y-144951800D01*
X106563012Y-144951800D01*
X106448272Y-144928977D01*
X106333531Y-144906153D01*
X106117366Y-144816615D01*
X105922821Y-144686624D01*
X105757376Y-144521179D01*
X105627385Y-144326634D01*
X105537847Y-144110469D01*
X105492200Y-143880987D01*
X105492200Y-143647013D01*
X105537847Y-143417531D01*
X105627385Y-143201366D01*
X105757376Y-143006821D01*
X105922821Y-142841376D01*
X106117366Y-142711385D01*
X106333530Y-142621847D01*
X106350060Y-142618559D01*
X106373884Y-142611332D01*
X106395841Y-142599596D01*
X106415086Y-142583802D01*
X106430880Y-142564557D01*
X106442616Y-142542601D01*
X106449843Y-142518777D01*
X106452283Y-142494000D01*
X106449843Y-142469224D01*
X106442616Y-142445400D01*
X106430880Y-142423443D01*
X106415086Y-142404198D01*
X106395841Y-142388404D01*
X106373885Y-142376668D01*
X106350060Y-142369441D01*
X106333530Y-142366153D01*
X106117366Y-142276615D01*
X105922821Y-142146624D01*
X105757376Y-141981179D01*
X105627385Y-141786634D01*
X105537847Y-141570469D01*
X105492200Y-141340987D01*
X105492200Y-141107013D01*
X105537847Y-140877531D01*
X105627385Y-140661366D01*
X105757376Y-140466821D01*
X105922821Y-140301376D01*
X106117366Y-140171385D01*
X106333531Y-140081847D01*
X106448272Y-140059024D01*
X106563012Y-140036200D01*
X106796988Y-140036200D01*
X106911728Y-140059024D01*
X106911728Y-140059024D01*
G37*
G36*
X112835725Y-133182525D02*
G01*
X113095395Y-133234176D01*
X113248066Y-133297415D01*
X113400736Y-133360653D01*
X113400737Y-133360654D01*
X113675536Y-133544268D01*
X113909232Y-133777964D01*
X114031919Y-133961579D01*
X114092847Y-134052764D01*
X114156085Y-134205434D01*
X114219324Y-134358105D01*
X114283800Y-134682252D01*
X114283800Y-135012748D01*
X114219324Y-135336895D01*
X114156085Y-135489566D01*
X114092847Y-135642236D01*
X114092846Y-135642237D01*
X113909232Y-135917036D01*
X113675536Y-136150732D01*
X113491921Y-136273419D01*
X113400736Y-136334347D01*
X113248066Y-136397585D01*
X113095395Y-136460824D01*
X112835725Y-136512475D01*
X112771249Y-136525300D01*
X112440751Y-136525300D01*
X112376275Y-136512475D01*
X112116605Y-136460824D01*
X111963934Y-136397585D01*
X111811264Y-136334347D01*
X111720079Y-136273419D01*
X111536464Y-136150732D01*
X111302768Y-135917036D01*
X111119154Y-135642237D01*
X111119153Y-135642236D01*
X111055915Y-135489566D01*
X110992676Y-135336895D01*
X110928200Y-135012748D01*
X110928200Y-134682252D01*
X110992676Y-134358105D01*
X111055915Y-134205434D01*
X111119153Y-134052764D01*
X111180081Y-133961579D01*
X111302768Y-133777964D01*
X111536464Y-133544268D01*
X111811263Y-133360654D01*
X111811264Y-133360653D01*
X111963934Y-133297415D01*
X112116605Y-133234176D01*
X112376275Y-133182525D01*
X112440751Y-133169700D01*
X112771249Y-133169700D01*
X112835725Y-133182525D01*
X112835725Y-133182525D01*
G37*
G36*
X115449880Y-130807174D02*
G01*
X115601213Y-130837275D01*
X115713432Y-130883758D01*
X115779162Y-130910985D01*
X115779163Y-130910986D01*
X115779166Y-130910987D01*
X115939310Y-131017991D01*
X116075509Y-131154190D01*
X116182513Y-131314334D01*
X116256225Y-131492287D01*
X116293800Y-131681196D01*
X116293800Y-131873804D01*
X116256225Y-132062713D01*
X116182513Y-132240666D01*
X116075509Y-132400810D01*
X115939310Y-132537009D01*
X115779166Y-132644013D01*
X115779163Y-132644014D01*
X115779162Y-132644015D01*
X115713432Y-132671242D01*
X115601213Y-132717725D01*
X115449880Y-132747826D01*
X115412305Y-132755300D01*
X115219695Y-132755300D01*
X115182120Y-132747826D01*
X115030787Y-132717725D01*
X114918568Y-132671242D01*
X114852838Y-132644015D01*
X114852837Y-132644014D01*
X114852834Y-132644013D01*
X114692690Y-132537009D01*
X114556491Y-132400810D01*
X114449487Y-132240666D01*
X114375775Y-132062713D01*
X114338200Y-131873804D01*
X114338200Y-131681196D01*
X114375775Y-131492287D01*
X114449487Y-131314334D01*
X114556491Y-131154190D01*
X114692690Y-131017991D01*
X114852834Y-130910987D01*
X114852837Y-130910986D01*
X114852838Y-130910985D01*
X114918568Y-130883758D01*
X115030787Y-130837275D01*
X115182120Y-130807174D01*
X115219695Y-130799700D01*
X115412305Y-130799700D01*
X115449880Y-130807174D01*
X115449880Y-130807174D01*
G37*
G36*
X115449880Y-126307174D02*
G01*
X115601213Y-126337275D01*
X115713432Y-126383758D01*
X115779162Y-126410985D01*
X115779163Y-126410986D01*
X115779166Y-126410987D01*
X115939310Y-126517991D01*
X116075509Y-126654190D01*
X116182513Y-126814334D01*
X116256225Y-126992287D01*
X116293800Y-127181196D01*
X116293800Y-127373804D01*
X116256225Y-127562713D01*
X116182513Y-127740666D01*
X116075509Y-127900810D01*
X115939310Y-128037009D01*
X115779166Y-128144013D01*
X115779163Y-128144014D01*
X115779162Y-128144015D01*
X115740165Y-128160168D01*
X115718209Y-128171905D01*
X115698964Y-128187699D01*
X115683170Y-128206944D01*
X115671434Y-128228900D01*
X115664207Y-128252724D01*
X115661767Y-128277501D01*
X115664207Y-128302277D01*
X115671434Y-128326101D01*
X115683171Y-128348057D01*
X115698965Y-128367302D01*
X115718210Y-128383096D01*
X115740163Y-128394831D01*
X115779162Y-128410985D01*
X115779163Y-128410986D01*
X115779166Y-128410987D01*
X115939310Y-128517991D01*
X116075509Y-128654190D01*
X116182513Y-128814334D01*
X116256225Y-128992287D01*
X116293800Y-129181196D01*
X116293800Y-129373804D01*
X116256225Y-129562713D01*
X116182513Y-129740666D01*
X116075509Y-129900810D01*
X115939310Y-130037009D01*
X115779166Y-130144013D01*
X115779163Y-130144014D01*
X115779162Y-130144015D01*
X115713432Y-130171242D01*
X115601213Y-130217725D01*
X115449880Y-130247826D01*
X115412305Y-130255300D01*
X115219695Y-130255300D01*
X115182120Y-130247826D01*
X115030787Y-130217725D01*
X114918568Y-130171242D01*
X114852838Y-130144015D01*
X114852837Y-130144014D01*
X114852834Y-130144013D01*
X114692690Y-130037009D01*
X114556491Y-129900810D01*
X114449487Y-129740666D01*
X114375775Y-129562713D01*
X114338200Y-129373804D01*
X114338200Y-129181196D01*
X114375775Y-128992287D01*
X114449487Y-128814334D01*
X114556491Y-128654190D01*
X114692690Y-128517991D01*
X114852834Y-128410987D01*
X114852837Y-128410986D01*
X114852838Y-128410985D01*
X114891837Y-128394831D01*
X114913791Y-128383095D01*
X114933036Y-128367301D01*
X114948830Y-128348056D01*
X114960566Y-128326100D01*
X114967793Y-128302276D01*
X114970233Y-128277499D01*
X114967793Y-128252723D01*
X114960566Y-128228899D01*
X114948829Y-128206943D01*
X114933035Y-128187698D01*
X114913790Y-128171904D01*
X114891835Y-128160168D01*
X114852838Y-128144015D01*
X114852837Y-128144014D01*
X114852834Y-128144013D01*
X114692690Y-128037009D01*
X114556491Y-127900810D01*
X114449487Y-127740666D01*
X114375775Y-127562713D01*
X114338200Y-127373804D01*
X114338200Y-127181196D01*
X114375775Y-126992287D01*
X114449487Y-126814334D01*
X114556491Y-126654190D01*
X114692690Y-126517991D01*
X114852834Y-126410987D01*
X114852837Y-126410986D01*
X114852838Y-126410985D01*
X114918568Y-126383758D01*
X115030787Y-126337275D01*
X115182120Y-126307174D01*
X115219695Y-126299700D01*
X115412305Y-126299700D01*
X115449880Y-126307174D01*
X115449880Y-126307174D01*
G37*
G36*
X116293800Y-125755300D02*
G01*
X114338200Y-125755300D01*
X114338200Y-123799700D01*
X116293800Y-123799700D01*
X116293800Y-125755300D01*
X116293800Y-125755300D01*
G37*
G36*
X112835725Y-120042525D02*
G01*
X113095395Y-120094176D01*
X113248066Y-120157415D01*
X113400736Y-120220653D01*
X113400737Y-120220654D01*
X113675536Y-120404268D01*
X113909232Y-120637964D01*
X114031919Y-120821579D01*
X114092847Y-120912764D01*
X114156085Y-121065434D01*
X114219324Y-121218105D01*
X114283800Y-121542252D01*
X114283800Y-121872748D01*
X114219324Y-122196895D01*
X114156085Y-122349566D01*
X114092847Y-122502236D01*
X114092846Y-122502237D01*
X113909232Y-122777036D01*
X113675536Y-123010732D01*
X113491921Y-123133419D01*
X113400736Y-123194347D01*
X113248066Y-123257585D01*
X113095395Y-123320824D01*
X112835725Y-123372475D01*
X112771249Y-123385300D01*
X112440751Y-123385300D01*
X112376275Y-123372475D01*
X112116605Y-123320824D01*
X111963934Y-123257585D01*
X111811264Y-123194347D01*
X111720079Y-123133419D01*
X111536464Y-123010732D01*
X111302768Y-122777036D01*
X111119154Y-122502237D01*
X111119153Y-122502236D01*
X111055915Y-122349566D01*
X110992676Y-122196895D01*
X110928200Y-121872748D01*
X110928200Y-121542252D01*
X110992676Y-121218105D01*
X111055915Y-121065434D01*
X111119153Y-120912764D01*
X111180081Y-120821579D01*
X111302768Y-120637964D01*
X111536464Y-120404268D01*
X111811263Y-120220654D01*
X111811264Y-120220653D01*
X111963934Y-120157415D01*
X112116605Y-120094176D01*
X112376275Y-120042525D01*
X112440751Y-120029700D01*
X112771249Y-120029700D01*
X112835725Y-120042525D01*
X112835725Y-120042525D01*
G37*
G36*
X106871682Y-117146348D02*
G01*
X107055998Y-117202260D01*
X107225865Y-117293055D01*
X107374754Y-117415246D01*
X107496945Y-117564135D01*
X107587740Y-117734002D01*
X107643652Y-117918318D01*
X107662531Y-118110000D01*
X107643652Y-118301682D01*
X107587740Y-118485998D01*
X107496945Y-118655865D01*
X107374754Y-118804754D01*
X107225865Y-118926945D01*
X107055998Y-119017740D01*
X106871682Y-119073652D01*
X106728035Y-119087800D01*
X106631965Y-119087800D01*
X106488318Y-119073652D01*
X106304002Y-119017740D01*
X106134135Y-118926945D01*
X105985246Y-118804754D01*
X105863055Y-118655865D01*
X105772260Y-118485998D01*
X105716348Y-118301682D01*
X105697469Y-118110000D01*
X105716348Y-117918318D01*
X105772260Y-117734002D01*
X105863055Y-117564135D01*
X105985246Y-117415246D01*
X106134135Y-117293055D01*
X106304002Y-117202260D01*
X106488318Y-117146348D01*
X106631965Y-117132200D01*
X106728035Y-117132200D01*
X106871682Y-117146348D01*
X106871682Y-117146348D01*
G37*
G36*
X117917800Y-116647800D02*
G01*
X115762200Y-116647800D01*
X115762200Y-114492200D01*
X117917800Y-114492200D01*
X117917800Y-116647800D01*
X117917800Y-116647800D01*
G37*
G36*
X117154383Y-111993619D02*
G01*
X117350530Y-112074866D01*
X117350531Y-112074867D01*
X117527058Y-112192818D01*
X117677182Y-112342942D01*
X117755995Y-112460894D01*
X117795134Y-112519470D01*
X117876381Y-112715617D01*
X117917800Y-112923846D01*
X117917800Y-113136154D01*
X117876381Y-113344383D01*
X117795134Y-113540530D01*
X117795133Y-113540531D01*
X117677182Y-113717058D01*
X117527058Y-113867182D01*
X117409106Y-113945995D01*
X117350530Y-113985134D01*
X117154383Y-114066381D01*
X116946154Y-114107800D01*
X116733846Y-114107800D01*
X116525617Y-114066381D01*
X116329470Y-113985134D01*
X116270894Y-113945995D01*
X116152942Y-113867182D01*
X116002818Y-113717058D01*
X115884867Y-113540531D01*
X115884866Y-113540530D01*
X115803619Y-113344383D01*
X115762200Y-113136154D01*
X115762200Y-112923846D01*
X115803619Y-112715617D01*
X115884866Y-112519470D01*
X115924005Y-112460894D01*
X116002818Y-112342942D01*
X116152942Y-112192818D01*
X116329469Y-112074867D01*
X116329470Y-112074866D01*
X116525617Y-111993619D01*
X116733846Y-111952200D01*
X116946154Y-111952200D01*
X117154383Y-111993619D01*
X117154383Y-111993619D01*
G37*
G36*
X106813880Y-109519674D02*
G01*
X106965213Y-109549775D01*
X107077432Y-109596258D01*
X107143162Y-109623485D01*
X107143163Y-109623486D01*
X107143166Y-109623487D01*
X107303310Y-109730491D01*
X107439509Y-109866690D01*
X107546513Y-110026834D01*
X107620225Y-110204787D01*
X107657800Y-110393696D01*
X107657800Y-110586304D01*
X107620225Y-110775213D01*
X107546513Y-110953166D01*
X107439509Y-111113310D01*
X107303310Y-111249509D01*
X107143166Y-111356513D01*
X107143163Y-111356514D01*
X107143162Y-111356515D01*
X107077432Y-111383742D01*
X106965213Y-111430225D01*
X106813880Y-111460326D01*
X106776305Y-111467800D01*
X106583695Y-111467800D01*
X106546120Y-111460326D01*
X106394787Y-111430225D01*
X106282568Y-111383742D01*
X106216838Y-111356515D01*
X106216837Y-111356514D01*
X106216834Y-111356513D01*
X106056690Y-111249509D01*
X105920491Y-111113310D01*
X105813487Y-110953166D01*
X105739775Y-110775213D01*
X105702200Y-110586304D01*
X105702200Y-110393696D01*
X105739775Y-110204787D01*
X105813487Y-110026834D01*
X105920491Y-109866690D01*
X106056690Y-109730491D01*
X106216834Y-109623487D01*
X106216837Y-109623486D01*
X106216838Y-109623485D01*
X106282568Y-109596258D01*
X106394787Y-109549775D01*
X106546120Y-109519674D01*
X106583695Y-109512200D01*
X106776305Y-109512200D01*
X106813880Y-109519674D01*
X106813880Y-109519674D01*
G37*
G36*
X117071728Y-102975023D02*
G01*
X117186469Y-102997847D01*
X117402634Y-103087385D01*
X117597179Y-103217376D01*
X117762624Y-103382821D01*
X117892615Y-103577366D01*
X117982153Y-103793531D01*
X118027800Y-104023013D01*
X118027800Y-104256987D01*
X117982153Y-104486469D01*
X117892615Y-104702634D01*
X117762624Y-104897179D01*
X117597179Y-105062624D01*
X117402634Y-105192615D01*
X117186470Y-105282153D01*
X117169940Y-105285441D01*
X117146116Y-105292668D01*
X117124159Y-105304404D01*
X117104914Y-105320198D01*
X117089120Y-105339443D01*
X117077384Y-105361399D01*
X117070157Y-105385223D01*
X117067717Y-105410000D01*
X117070157Y-105434776D01*
X117077384Y-105458600D01*
X117089120Y-105480557D01*
X117104914Y-105499802D01*
X117124159Y-105515596D01*
X117146115Y-105527332D01*
X117169940Y-105534559D01*
X117186470Y-105537847D01*
X117402634Y-105627385D01*
X117597179Y-105757376D01*
X117762624Y-105922821D01*
X117892615Y-106117366D01*
X117982153Y-106333531D01*
X118027800Y-106563013D01*
X118027800Y-106796987D01*
X117982153Y-107026469D01*
X117892615Y-107242634D01*
X117762624Y-107437179D01*
X117597179Y-107602624D01*
X117402634Y-107732615D01*
X117186469Y-107822153D01*
X117071728Y-107844976D01*
X116956988Y-107867800D01*
X116723012Y-107867800D01*
X116608272Y-107844976D01*
X116493531Y-107822153D01*
X116277366Y-107732615D01*
X116082821Y-107602624D01*
X115917376Y-107437179D01*
X115787385Y-107242634D01*
X115697847Y-107026469D01*
X115652200Y-106796987D01*
X115652200Y-106563013D01*
X115697847Y-106333531D01*
X115787385Y-106117366D01*
X115917376Y-105922821D01*
X116082821Y-105757376D01*
X116277366Y-105627385D01*
X116493530Y-105537847D01*
X116510060Y-105534559D01*
X116533884Y-105527332D01*
X116555841Y-105515596D01*
X116575086Y-105499802D01*
X116590880Y-105480557D01*
X116602616Y-105458601D01*
X116609843Y-105434777D01*
X116612283Y-105410000D01*
X116609843Y-105385224D01*
X116602616Y-105361400D01*
X116590880Y-105339443D01*
X116575086Y-105320198D01*
X116555841Y-105304404D01*
X116533885Y-105292668D01*
X116510060Y-105285441D01*
X116493530Y-105282153D01*
X116277366Y-105192615D01*
X116082821Y-105062624D01*
X115917376Y-104897179D01*
X115787385Y-104702634D01*
X115697847Y-104486469D01*
X115652200Y-104256987D01*
X115652200Y-104023013D01*
X115697847Y-103793531D01*
X115787385Y-103577366D01*
X115917376Y-103382821D01*
X116082821Y-103217376D01*
X116277366Y-103087385D01*
X116493531Y-102997847D01*
X116608272Y-102975023D01*
X116723012Y-102952200D01*
X116956988Y-102952200D01*
X117071728Y-102975023D01*
X117071728Y-102975023D01*
G37*
G36*
X106911728Y-102975023D02*
G01*
X107026469Y-102997847D01*
X107242634Y-103087385D01*
X107437179Y-103217376D01*
X107602624Y-103382821D01*
X107732615Y-103577366D01*
X107822153Y-103793531D01*
X107867800Y-104023013D01*
X107867800Y-104256987D01*
X107822153Y-104486469D01*
X107732615Y-104702634D01*
X107602624Y-104897179D01*
X107437179Y-105062624D01*
X107242634Y-105192615D01*
X107026470Y-105282153D01*
X107009940Y-105285441D01*
X106986116Y-105292668D01*
X106964159Y-105304404D01*
X106944914Y-105320198D01*
X106929120Y-105339443D01*
X106917384Y-105361399D01*
X106910157Y-105385223D01*
X106907717Y-105410000D01*
X106910157Y-105434776D01*
X106917384Y-105458600D01*
X106929120Y-105480557D01*
X106944914Y-105499802D01*
X106964159Y-105515596D01*
X106986115Y-105527332D01*
X107009940Y-105534559D01*
X107026470Y-105537847D01*
X107242634Y-105627385D01*
X107437179Y-105757376D01*
X107602624Y-105922821D01*
X107732615Y-106117366D01*
X107822153Y-106333531D01*
X107867800Y-106563013D01*
X107867800Y-106796987D01*
X107822153Y-107026469D01*
X107732615Y-107242634D01*
X107602624Y-107437179D01*
X107437179Y-107602624D01*
X107242634Y-107732615D01*
X107026469Y-107822153D01*
X106911728Y-107844976D01*
X106796988Y-107867800D01*
X106563012Y-107867800D01*
X106448272Y-107844976D01*
X106333531Y-107822153D01*
X106117366Y-107732615D01*
X105922821Y-107602624D01*
X105757376Y-107437179D01*
X105627385Y-107242634D01*
X105537847Y-107026469D01*
X105492200Y-106796987D01*
X105492200Y-106563013D01*
X105537847Y-106333531D01*
X105627385Y-106117366D01*
X105757376Y-105922821D01*
X105922821Y-105757376D01*
X106117366Y-105627385D01*
X106333530Y-105537847D01*
X106350060Y-105534559D01*
X106373884Y-105527332D01*
X106395841Y-105515596D01*
X106415086Y-105499802D01*
X106430880Y-105480557D01*
X106442616Y-105458601D01*
X106449843Y-105434777D01*
X106452283Y-105410000D01*
X106449843Y-105385224D01*
X106442616Y-105361400D01*
X106430880Y-105339443D01*
X106415086Y-105320198D01*
X106395841Y-105304404D01*
X106373885Y-105292668D01*
X106350060Y-105285441D01*
X106333530Y-105282153D01*
X106117366Y-105192615D01*
X105922821Y-105062624D01*
X105757376Y-104897179D01*
X105627385Y-104702634D01*
X105537847Y-104486469D01*
X105492200Y-104256987D01*
X105492200Y-104023013D01*
X105537847Y-103793531D01*
X105627385Y-103577366D01*
X105757376Y-103382821D01*
X105922821Y-103217376D01*
X106117366Y-103087385D01*
X106333531Y-102997847D01*
X106448272Y-102975023D01*
X106563012Y-102952200D01*
X106796988Y-102952200D01*
X106911728Y-102975023D01*
X106911728Y-102975023D01*
G37*
M02*
