M48
; DRILL file {KiCad (5.1.2-1)-1} date Sunday, July 07, 2019 at 09:59:19 PM
; FORMAT={-:-/ absolute / inch / decimal}
; #@! TF.CreationDate,2019-07-07T21:59:19-07:00
; #@! TF.GenerationSoftware,Kicad,Pcbnew,(5.1.2-1)-1
; #@! TF.FileFunction,Plated,1,2,PTH
FMAT,2
INCH
T1C0.0315
T2C0.0354
T3C0.0362
T4C0.0402
T5C0.0906
%
G90
G05
T1
X4.2Y-4.35
X4.2Y-4.65
T2
X4.6Y-4.45
X4.6Y-4.55
T3
X4.54Y-4.9125
X4.54Y-5.0109
X4.54Y-5.0897
X4.54Y-5.1881
T4
X4.2Y-5.9
X4.2Y-6.0
X4.6Y-5.9
X4.6Y-6.0
X4.6Y-5.56
X4.6Y-5.66
X4.2Y-4.1
X4.2Y-4.2
X4.6Y-4.1
X4.6Y-4.2
X4.2Y-5.56
X4.2Y-5.66
T5
X4.4333Y-4.7916
X4.4333Y-5.309
T0
M30
