M48
; DRILL file {KiCad (5.1.2-1)-1} date Wednesday, June 19, 2019 at 06:55:03 PM
; FORMAT={-:-/ absolute / inch / decimal}
; #@! TF.CreationDate,2019-06-19T18:55:03-07:00
; #@! TF.GenerationSoftware,Kicad,Pcbnew,(5.1.2-1)-1
; #@! TF.FileFunction,Plated,1,2,PTH
FMAT,2
INCH
T1C0.0197
T2C0.0299
T3C0.0315
T4C0.0394
T5C0.0433
%
G90
G05
T1
X9.7052Y-3.505
X9.78Y-3.505
T2
X6.4613Y-4.105
X6.855Y-4.105
X7.6863Y-4.105
X8.08Y-4.105
T3
X9.455Y-2.33
X9.455Y-2.63
X8.655Y-4.53
X8.655Y-4.83
X8.755Y-4.53
X8.755Y-4.83
X8.855Y-4.53
X8.855Y-4.83
X8.955Y-4.53
X8.955Y-4.83
X9.055Y-4.53
X9.055Y-4.83
X9.155Y-4.53
X9.155Y-4.83
X9.255Y-4.53
X9.255Y-4.83
X8.805Y-3.655
X8.805Y-3.955
X7.58Y-3.66
X7.58Y-3.96
X5.955Y-2.33
X5.955Y-2.63
X5.33Y-2.33
X5.33Y-2.63
X5.58Y-2.855
X5.58Y-2.955
X5.58Y-3.055
X5.58Y-3.155
X5.58Y-3.255
X5.58Y-3.355
X5.58Y-3.455
X5.58Y-3.555
X5.88Y-2.855
X5.88Y-2.955
X5.88Y-3.055
X5.88Y-3.155
X5.88Y-3.255
X5.88Y-3.355
X5.88Y-3.455
X5.88Y-3.555
X6.205Y-2.33
X6.205Y-2.63
X8.655Y-2.88
X8.655Y-3.48
X8.755Y-2.88
X8.755Y-3.48
X8.855Y-2.88
X8.855Y-3.48
X8.955Y-2.88
X8.955Y-3.48
X9.055Y-2.88
X9.055Y-3.48
X7.33Y-2.33
X7.33Y-2.63
X10.36Y-2.86
X10.36Y-2.96
X10.36Y-3.06
X10.36Y-3.16
X10.36Y-3.26
X10.36Y-3.36
X10.36Y-3.46
X10.36Y-3.56
X10.66Y-2.86
X10.66Y-2.96
X10.66Y-3.06
X10.66Y-3.16
X10.66Y-3.26
X10.66Y-3.36
X10.66Y-3.46
X10.66Y-3.56
X10.33Y-2.33
X10.33Y-2.63
X8.205Y-2.33
X8.205Y-2.63
X7.43Y-2.88
X7.43Y-3.48
X7.53Y-2.88
X7.53Y-3.48
X7.63Y-2.88
X7.63Y-3.48
X7.73Y-2.88
X7.73Y-3.48
X7.83Y-2.88
X7.83Y-3.48
X5.455Y-2.33
X5.455Y-2.63
X8.205Y-3.655
X8.205Y-3.955
X8.83Y-2.33
X8.83Y-2.63
X5.58Y-2.33
X5.58Y-2.63
X10.455Y-2.33
X10.455Y-2.63
X9.58Y-2.33
X9.58Y-2.63
X9.955Y-2.33
X9.955Y-2.63
X10.205Y-2.33
X10.205Y-2.63
X6.205Y-2.88
X6.205Y-3.48
X6.305Y-2.88
X6.305Y-3.48
X6.405Y-2.88
X6.405Y-3.48
X6.505Y-2.88
X6.505Y-3.48
X6.605Y-2.88
X6.605Y-3.48
X9.905Y-2.855
X9.905Y-2.955
X9.905Y-3.055
X9.905Y-3.155
X9.905Y-3.255
X9.905Y-3.355
X9.905Y-3.455
X9.905Y-3.555
X10.205Y-2.855
X10.205Y-2.955
X10.205Y-3.055
X10.205Y-3.155
X10.205Y-3.255
X10.205Y-3.355
X10.205Y-3.455
X10.205Y-3.555
X7.08Y-2.33
X7.08Y-2.63
X6.955Y-2.33
X6.955Y-2.63
X9.6566Y-3.905
X9.755Y-3.905
X9.955Y-3.705
X9.955Y-4.005
X10.055Y-3.705
X10.055Y-4.005
X10.155Y-3.705
X10.155Y-4.005
X10.255Y-3.705
X10.255Y-4.005
X10.355Y-3.705
X10.355Y-4.005
X10.455Y-3.705
X10.455Y-4.005
X10.555Y-3.705
X10.555Y-4.005
X10.655Y-3.705
X10.655Y-4.005
X5.83Y-2.33
X5.83Y-2.63
X9.205Y-2.33
X9.205Y-2.63
X8.33Y-2.33
X8.33Y-2.63
X6.58Y-2.33
X6.58Y-2.63
X7.955Y-2.33
X7.955Y-2.63
X8.08Y-2.33
X8.08Y-2.63
X6.355Y-3.655
X6.355Y-3.955
X7.455Y-2.33
X7.455Y-2.63
X9.705Y-2.33
X9.705Y-2.63
X6.33Y-2.33
X6.33Y-2.63
X7.13Y-3.68
X7.13Y-3.78
X7.13Y-3.88
X7.13Y-3.98
X7.13Y-4.08
X7.13Y-4.18
X7.13Y-4.28
X7.13Y-4.38
X7.43Y-3.68
X7.43Y-3.78
X7.43Y-3.88
X7.43Y-3.98
X7.43Y-4.08
X7.43Y-4.18
X7.43Y-4.28
X7.43Y-4.38
X9.43Y-3.655
X9.43Y-3.955
X8.58Y-2.33
X8.58Y-2.63
X9.655Y-3.705
X9.7534Y-3.705
X9.18Y-2.88
X9.18Y-3.48
X9.28Y-2.88
X9.28Y-3.48
X9.38Y-2.88
X9.38Y-3.48
X9.48Y-2.88
X9.48Y-3.48
X9.58Y-2.88
X9.58Y-3.48
X10.08Y-2.33
X10.08Y-2.63
X7.83Y-2.33
X7.83Y-2.63
X6.83Y-2.33
X6.83Y-2.63
X8.35Y-3.675
X8.35Y-3.775
X8.35Y-3.875
X8.35Y-3.975
X8.35Y-4.075
X8.35Y-4.175
X8.35Y-4.275
X8.35Y-4.375
X8.65Y-3.675
X8.65Y-3.775
X8.65Y-3.875
X8.65Y-3.975
X8.65Y-4.075
X8.65Y-4.175
X8.65Y-4.275
X8.65Y-4.375
X6.98Y-3.655
X6.98Y-3.955
X8.955Y-2.33
X8.955Y-2.63
X7.955Y-2.88
X7.955Y-3.48
X8.055Y-2.88
X8.055Y-3.48
X8.155Y-2.88
X8.155Y-3.48
X8.255Y-2.88
X8.255Y-3.48
X8.355Y-2.88
X8.355Y-3.48
X6.08Y-2.33
X6.08Y-2.63
X10.055Y-4.155
X10.055Y-4.455
X10.155Y-4.155
X10.155Y-4.455
X10.255Y-4.155
X10.255Y-4.455
X10.355Y-4.155
X10.355Y-4.455
X10.455Y-4.155
X10.455Y-4.455
X10.555Y-4.155
X10.555Y-4.455
X10.655Y-4.155
X10.655Y-4.455
X9.08Y-2.33
X9.08Y-2.63
X7.205Y-2.33
X7.205Y-2.63
X6.105Y-3.73
X6.105Y-3.8284
X8.455Y-2.33
X8.455Y-2.63
X6.73Y-2.88
X6.73Y-3.48
X6.83Y-2.88
X6.83Y-3.48
X6.93Y-2.88
X6.93Y-3.48
X7.03Y-2.88
X7.03Y-3.48
X7.13Y-2.88
X7.13Y-3.48
X7.555Y-4.53
X7.555Y-4.83
X7.655Y-4.53
X7.655Y-4.83
X7.755Y-4.53
X7.755Y-4.83
X7.855Y-4.53
X7.855Y-4.83
X7.955Y-4.53
X7.955Y-4.83
X8.055Y-4.53
X8.055Y-4.83
X8.155Y-4.53
X8.155Y-4.83
X8.255Y-4.53
X8.255Y-4.83
X9.33Y-2.33
X9.33Y-2.63
X9.505Y-4.13
X9.505Y-4.23
X9.505Y-4.33
X9.505Y-4.43
X9.505Y-4.53
X9.505Y-4.63
X9.505Y-4.73
X9.505Y-4.83
X9.805Y-4.13
X9.805Y-4.23
X9.805Y-4.33
X9.805Y-4.43
X9.805Y-4.53
X9.805Y-4.63
X9.805Y-4.73
X9.805Y-4.83
X6.705Y-2.33
X6.705Y-2.63
X7.58Y-2.33
X7.58Y-2.63
X6.005Y-4.13
X6.005Y-4.23
X6.005Y-4.33
X6.005Y-4.43
X6.005Y-4.53
X6.005Y-4.63
X6.005Y-4.73
X6.005Y-4.83
X6.305Y-4.13
X6.305Y-4.23
X6.305Y-4.33
X6.305Y-4.43
X6.305Y-4.53
X6.305Y-4.63
X6.305Y-4.73
X6.305Y-4.83
X7.8566Y-4.33
X7.955Y-4.33
X6.455Y-2.33
X6.455Y-2.63
X5.155Y-3.705
X5.155Y-4.005
X5.255Y-3.705
X5.255Y-4.005
X5.355Y-3.705
X5.355Y-4.005
X5.455Y-3.705
X5.455Y-4.005
X5.555Y-3.705
X5.555Y-4.005
X5.655Y-3.705
X5.655Y-4.005
X5.755Y-3.705
X5.755Y-4.005
X5.855Y-3.705
X5.855Y-4.005
X5.155Y-4.155
X5.155Y-4.455
X5.255Y-4.155
X5.255Y-4.455
X5.355Y-4.155
X5.355Y-4.455
X5.455Y-4.155
X5.455Y-4.455
X5.555Y-4.155
X5.555Y-4.455
X5.655Y-4.155
X5.655Y-4.455
X5.755Y-4.155
X5.755Y-4.455
X9.83Y-2.33
X9.83Y-2.63
X6.53Y-4.53
X6.53Y-4.83
X6.63Y-4.53
X6.63Y-4.83
X6.73Y-4.53
X6.73Y-4.83
X6.83Y-4.53
X6.83Y-4.83
X6.93Y-4.53
X6.93Y-4.83
X7.03Y-4.53
X7.03Y-4.83
X7.13Y-4.53
X7.13Y-4.83
X8.705Y-2.33
X8.705Y-2.63
X5.705Y-2.33
X5.705Y-2.63
X7.705Y-2.33
X7.705Y-2.63
X5.155Y-2.855
X5.155Y-2.955
X5.155Y-3.055
X5.155Y-3.155
X5.155Y-3.255
X5.155Y-3.355
X5.155Y-3.455
X5.155Y-3.555
X5.455Y-2.855
X5.455Y-2.955
X5.455Y-3.055
X5.455Y-3.155
X5.455Y-3.255
X5.455Y-3.355
X5.455Y-3.455
X5.455Y-3.555
T5
X6.7859Y-3.755
X6.7859Y-3.9322
X8.98Y-3.755
X8.98Y-3.9322
X9.2359Y-3.755
X9.2359Y-3.9322
X7.755Y-3.755
X7.755Y-3.9322
X8.0109Y-3.755
X8.0109Y-3.9322
X6.53Y-3.755
X6.53Y-3.9322
T4
G00X5.3339Y-4.5828
M15
G01X5.2749Y-4.5828
M16
G05
G00X5.3339Y-4.9372
M15
G01X5.2749Y-4.9372
M16
G05
G00X5.3438Y-4.7344
M15
G01X5.3438Y-4.7856
M16
G05
G00X5.58Y-4.7206
M15
G01X5.58Y-4.7994
M16
G05
T0
M30
