G04 #@! TF.GenerationSoftware,KiCad,Pcbnew,(5.1.2-1)-1*
G04 #@! TF.CreationDate,2019-06-19T18:54:32-07:00*
G04 #@! TF.ProjectId,clock,636c6f63-6b2e-46b6-9963-61645f706362,v01*
G04 #@! TF.SameCoordinates,Original*
G04 #@! TF.FileFunction,Legend,Top*
G04 #@! TF.FilePolarity,Positive*
%FSLAX46Y46*%
G04 Gerber Fmt 4.6, Leading zero omitted, Abs format (unit mm)*
G04 Created by KiCad (PCBNEW (5.1.2-1)-1) date 2019-06-19 18:54:32*
%MOMM*%
%LPD*%
G04 APERTURE LIST*
%ADD10C,0.150000*%
%ADD11C,0.120000*%
%ADD12C,0.100000*%
G04 APERTURE END LIST*
D10*
X252509976Y-117848619D02*
X252557595Y-117801000D01*
X252652833Y-117753380D01*
X252890928Y-117753380D01*
X252986166Y-117801000D01*
X253033785Y-117848619D01*
X253081404Y-117943857D01*
X253081404Y-118039095D01*
X253033785Y-118181952D01*
X252462357Y-118753380D01*
X253081404Y-118753380D01*
X253938547Y-118086714D02*
X253938547Y-118753380D01*
X253700452Y-117705761D02*
X253462357Y-118420047D01*
X254081404Y-118420047D01*
X254462357Y-118753380D02*
X254462357Y-117753380D01*
X254462357Y-118229571D02*
X255033785Y-118229571D01*
X255033785Y-118753380D02*
X255033785Y-117753380D01*
X256271880Y-118753380D02*
X256271880Y-117753380D01*
X256509976Y-117753380D01*
X256652833Y-117801000D01*
X256748071Y-117896238D01*
X256795690Y-117991476D01*
X256843309Y-118181952D01*
X256843309Y-118324809D01*
X256795690Y-118515285D01*
X256748071Y-118610523D01*
X256652833Y-118705761D01*
X256509976Y-118753380D01*
X256271880Y-118753380D01*
X257271880Y-118753380D02*
X257271880Y-117753380D01*
X258271880Y-117801000D02*
X258176642Y-117753380D01*
X258033785Y-117753380D01*
X257890928Y-117801000D01*
X257795690Y-117896238D01*
X257748071Y-117991476D01*
X257700452Y-118181952D01*
X257700452Y-118324809D01*
X257748071Y-118515285D01*
X257795690Y-118610523D01*
X257890928Y-118705761D01*
X258033785Y-118753380D01*
X258129023Y-118753380D01*
X258271880Y-118705761D01*
X258319500Y-118658142D01*
X258319500Y-118324809D01*
X258129023Y-118324809D01*
X258748071Y-118753380D02*
X258748071Y-117753380D01*
X259081404Y-117753380D02*
X259652833Y-117753380D01*
X259367119Y-118753380D02*
X259367119Y-117753380D01*
X259938547Y-118467666D02*
X260414738Y-118467666D01*
X259843309Y-118753380D02*
X260176642Y-117753380D01*
X260509976Y-118753380D01*
X261319500Y-118753380D02*
X260843309Y-118753380D01*
X260843309Y-117753380D01*
X262986166Y-118658142D02*
X262938547Y-118705761D01*
X262795690Y-118753380D01*
X262700452Y-118753380D01*
X262557595Y-118705761D01*
X262462357Y-118610523D01*
X262414738Y-118515285D01*
X262367119Y-118324809D01*
X262367119Y-118181952D01*
X262414738Y-117991476D01*
X262462357Y-117896238D01*
X262557595Y-117801000D01*
X262700452Y-117753380D01*
X262795690Y-117753380D01*
X262938547Y-117801000D01*
X262986166Y-117848619D01*
X263890928Y-118753380D02*
X263414738Y-118753380D01*
X263414738Y-117753380D01*
X264414738Y-117753380D02*
X264605214Y-117753380D01*
X264700452Y-117801000D01*
X264795690Y-117896238D01*
X264843309Y-118086714D01*
X264843309Y-118420047D01*
X264795690Y-118610523D01*
X264700452Y-118705761D01*
X264605214Y-118753380D01*
X264414738Y-118753380D01*
X264319500Y-118705761D01*
X264224261Y-118610523D01*
X264176642Y-118420047D01*
X264176642Y-118086714D01*
X264224261Y-117896238D01*
X264319500Y-117801000D01*
X264414738Y-117753380D01*
X265843309Y-118658142D02*
X265795690Y-118705761D01*
X265652833Y-118753380D01*
X265557595Y-118753380D01*
X265414738Y-118705761D01*
X265319500Y-118610523D01*
X265271880Y-118515285D01*
X265224261Y-118324809D01*
X265224261Y-118181952D01*
X265271880Y-117991476D01*
X265319500Y-117896238D01*
X265414738Y-117801000D01*
X265557595Y-117753380D01*
X265652833Y-117753380D01*
X265795690Y-117801000D01*
X265843309Y-117848619D01*
X266271880Y-118753380D02*
X266271880Y-117753380D01*
X266843309Y-118753380D02*
X266414738Y-118181952D01*
X266843309Y-117753380D02*
X266271880Y-118324809D01*
X252557595Y-119879571D02*
X252890928Y-119879571D01*
X253033785Y-120403380D02*
X252557595Y-120403380D01*
X252557595Y-119403380D01*
X253033785Y-119403380D01*
X254033785Y-120403380D02*
X253700452Y-119927190D01*
X253462357Y-120403380D02*
X253462357Y-119403380D01*
X253843309Y-119403380D01*
X253938547Y-119451000D01*
X253986166Y-119498619D01*
X254033785Y-119593857D01*
X254033785Y-119736714D01*
X253986166Y-119831952D01*
X253938547Y-119879571D01*
X253843309Y-119927190D01*
X253462357Y-119927190D01*
X254462357Y-120403380D02*
X254462357Y-119403380D01*
X254938547Y-120403380D02*
X254938547Y-119403380D01*
X255509976Y-120403380D02*
X255081404Y-119831952D01*
X255509976Y-119403380D02*
X254938547Y-119974809D01*
X256557595Y-119403380D02*
X256890928Y-120403380D01*
X257224261Y-119403380D01*
X257509976Y-120117666D02*
X257986166Y-120117666D01*
X257414738Y-120403380D02*
X257748071Y-119403380D01*
X258081404Y-120403380D01*
X258414738Y-120403380D02*
X258414738Y-119403380D01*
X258986166Y-120403380D01*
X258986166Y-119403380D01*
X260129023Y-119403380D02*
X260795690Y-119403380D01*
X260129023Y-120403380D01*
X260795690Y-120403380D01*
X261176642Y-120403380D02*
X261176642Y-119403380D01*
X261938547Y-119403380D02*
X261938547Y-120117666D01*
X261890928Y-120260523D01*
X261795690Y-120355761D01*
X261652833Y-120403380D01*
X261557595Y-120403380D01*
X262367119Y-120355761D02*
X262509976Y-120403380D01*
X262748071Y-120403380D01*
X262843309Y-120355761D01*
X262890928Y-120308142D01*
X262938547Y-120212904D01*
X262938547Y-120117666D01*
X262890928Y-120022428D01*
X262843309Y-119974809D01*
X262748071Y-119927190D01*
X262557595Y-119879571D01*
X262462357Y-119831952D01*
X262414738Y-119784333D01*
X262367119Y-119689095D01*
X262367119Y-119593857D01*
X262414738Y-119498619D01*
X262462357Y-119451000D01*
X262557595Y-119403380D01*
X262795690Y-119403380D01*
X262938547Y-119451000D01*
X263224261Y-119403380D02*
X263795690Y-119403380D01*
X263509976Y-120403380D02*
X263509976Y-119403380D01*
X264176642Y-120355761D02*
X264176642Y-120403380D01*
X264129023Y-120498619D01*
X264081404Y-120546238D01*
X265319500Y-119498619D02*
X265367119Y-119451000D01*
X265462357Y-119403380D01*
X265700452Y-119403380D01*
X265795690Y-119451000D01*
X265843309Y-119498619D01*
X265890928Y-119593857D01*
X265890928Y-119689095D01*
X265843309Y-119831952D01*
X265271880Y-120403380D01*
X265890928Y-120403380D01*
X266509976Y-119403380D02*
X266605214Y-119403380D01*
X266700452Y-119451000D01*
X266748071Y-119498619D01*
X266795690Y-119593857D01*
X266843309Y-119784333D01*
X266843309Y-120022428D01*
X266795690Y-120212904D01*
X266748071Y-120308142D01*
X266700452Y-120355761D01*
X266605214Y-120403380D01*
X266509976Y-120403380D01*
X266414738Y-120355761D01*
X266367119Y-120308142D01*
X266319500Y-120212904D01*
X266271880Y-120022428D01*
X266271880Y-119784333D01*
X266319500Y-119593857D01*
X266367119Y-119498619D01*
X266414738Y-119451000D01*
X266509976Y-119403380D01*
X267795690Y-120403380D02*
X267224261Y-120403380D01*
X267509976Y-120403380D02*
X267509976Y-119403380D01*
X267414738Y-119546238D01*
X267319500Y-119641476D01*
X267224261Y-119689095D01*
X268271880Y-120403380D02*
X268462357Y-120403380D01*
X268557595Y-120355761D01*
X268605214Y-120308142D01*
X268700452Y-120165285D01*
X268748071Y-119974809D01*
X268748071Y-119593857D01*
X268700452Y-119498619D01*
X268652833Y-119451000D01*
X268557595Y-119403380D01*
X268367119Y-119403380D01*
X268271880Y-119451000D01*
X268224261Y-119498619D01*
X268176642Y-119593857D01*
X268176642Y-119831952D01*
X268224261Y-119927190D01*
X268271880Y-119974809D01*
X268367119Y-120022428D01*
X268557595Y-120022428D01*
X268652833Y-119974809D01*
X268700452Y-119927190D01*
X268748071Y-119831952D01*
X167330666Y-93416380D02*
X167330666Y-92416380D01*
X167330666Y-92892571D02*
X167902095Y-92892571D01*
X167902095Y-93416380D02*
X167902095Y-92416380D01*
X168568761Y-92416380D02*
X168759238Y-92416380D01*
X168854476Y-92464000D01*
X168949714Y-92559238D01*
X168997333Y-92749714D01*
X168997333Y-93083047D01*
X168949714Y-93273523D01*
X168854476Y-93368761D01*
X168759238Y-93416380D01*
X168568761Y-93416380D01*
X168473523Y-93368761D01*
X168378285Y-93273523D01*
X168330666Y-93083047D01*
X168330666Y-92749714D01*
X168378285Y-92559238D01*
X168473523Y-92464000D01*
X168568761Y-92416380D01*
X169425904Y-92416380D02*
X169425904Y-93225904D01*
X169473523Y-93321142D01*
X169521142Y-93368761D01*
X169616380Y-93416380D01*
X169806857Y-93416380D01*
X169902095Y-93368761D01*
X169949714Y-93321142D01*
X169997333Y-93225904D01*
X169997333Y-92416380D01*
X171044952Y-93416380D02*
X170711619Y-92940190D01*
X170473523Y-93416380D02*
X170473523Y-92416380D01*
X170854476Y-92416380D01*
X170949714Y-92464000D01*
X170997333Y-92511619D01*
X171044952Y-92606857D01*
X171044952Y-92749714D01*
X170997333Y-92844952D01*
X170949714Y-92892571D01*
X170854476Y-92940190D01*
X170473523Y-92940190D01*
X197699619Y-93416380D02*
X197699619Y-92416380D01*
X198032952Y-93130666D01*
X198366285Y-92416380D01*
X198366285Y-93416380D01*
X198842476Y-93416380D02*
X198842476Y-92416380D01*
X199318666Y-93416380D02*
X199318666Y-92416380D01*
X199890095Y-93416380D01*
X199890095Y-92416380D01*
X200366285Y-92416380D02*
X200366285Y-93225904D01*
X200413904Y-93321142D01*
X200461523Y-93368761D01*
X200556761Y-93416380D01*
X200747238Y-93416380D01*
X200842476Y-93368761D01*
X200890095Y-93321142D01*
X200937714Y-93225904D01*
X200937714Y-92416380D01*
X201271047Y-92416380D02*
X201842476Y-92416380D01*
X201556761Y-93416380D02*
X201556761Y-92416380D01*
X202175809Y-92892571D02*
X202509142Y-92892571D01*
X202652000Y-93416380D02*
X202175809Y-93416380D01*
X202175809Y-92416380D01*
X202652000Y-92416380D01*
X228251142Y-93368761D02*
X228394000Y-93416380D01*
X228632095Y-93416380D01*
X228727333Y-93368761D01*
X228774952Y-93321142D01*
X228822571Y-93225904D01*
X228822571Y-93130666D01*
X228774952Y-93035428D01*
X228727333Y-92987809D01*
X228632095Y-92940190D01*
X228441619Y-92892571D01*
X228346380Y-92844952D01*
X228298761Y-92797333D01*
X228251142Y-92702095D01*
X228251142Y-92606857D01*
X228298761Y-92511619D01*
X228346380Y-92464000D01*
X228441619Y-92416380D01*
X228679714Y-92416380D01*
X228822571Y-92464000D01*
X229251142Y-92892571D02*
X229584476Y-92892571D01*
X229727333Y-93416380D02*
X229251142Y-93416380D01*
X229251142Y-92416380D01*
X229727333Y-92416380D01*
X230013047Y-92416380D02*
X230584476Y-92416380D01*
X230298761Y-93416380D02*
X230298761Y-92416380D01*
X231536857Y-92416380D02*
X232108285Y-92416380D01*
X231822571Y-93416380D02*
X231822571Y-92416380D01*
X232441619Y-93416380D02*
X232441619Y-92416380D01*
X232917809Y-93416380D02*
X232917809Y-92416380D01*
X233251142Y-93130666D01*
X233584476Y-92416380D01*
X233584476Y-93416380D01*
X234060666Y-92892571D02*
X234394000Y-92892571D01*
X234536857Y-93416380D02*
X234060666Y-93416380D01*
X234060666Y-92416380D01*
X234536857Y-92416380D01*
D11*
X245467000Y-66262000D02*
X245137000Y-66262000D01*
X245137000Y-66262000D02*
X245137000Y-59722000D01*
X245137000Y-59722000D02*
X245467000Y-59722000D01*
X247547000Y-66262000D02*
X247877000Y-66262000D01*
X247877000Y-66262000D02*
X247877000Y-59722000D01*
X247877000Y-59722000D02*
X247547000Y-59722000D01*
X140402000Y-91687000D02*
X150682000Y-91687000D01*
X140402000Y-71127000D02*
X140402000Y-91687000D01*
X150682000Y-71127000D02*
X140402000Y-71127000D01*
X150682000Y-91687000D02*
X150682000Y-71127000D01*
X142892000Y-91627000D02*
X144542000Y-91627000D01*
X142892000Y-71187000D02*
X142892000Y-91627000D01*
X148192000Y-71187000D02*
X142892000Y-71187000D01*
X148192000Y-91627000D02*
X148192000Y-71187000D01*
X146542000Y-91627000D02*
X148192000Y-91627000D01*
X144542000Y-91627000D02*
G75*
G02X146542000Y-91627000I1000000J0D01*
G01*
X238152000Y-99917000D02*
X238482000Y-99917000D01*
X238152000Y-93377000D02*
X238152000Y-99917000D01*
X238482000Y-93377000D02*
X238152000Y-93377000D01*
X240892000Y-99917000D02*
X240562000Y-99917000D01*
X240892000Y-93377000D02*
X240892000Y-99917000D01*
X240562000Y-93377000D02*
X240892000Y-93377000D01*
X225017000Y-93377000D02*
X224687000Y-93377000D01*
X225017000Y-99917000D02*
X225017000Y-93377000D01*
X224687000Y-99917000D02*
X225017000Y-99917000D01*
X222277000Y-93377000D02*
X222607000Y-93377000D01*
X222277000Y-99917000D02*
X222277000Y-93377000D01*
X222607000Y-99917000D02*
X222277000Y-99917000D01*
X251817000Y-66262000D02*
X251487000Y-66262000D01*
X251487000Y-66262000D02*
X251487000Y-59722000D01*
X251487000Y-59722000D02*
X251817000Y-59722000D01*
X253897000Y-66262000D02*
X254227000Y-66262000D01*
X254227000Y-66262000D02*
X254227000Y-59722000D01*
X254227000Y-59722000D02*
X253897000Y-59722000D01*
X257402000Y-59722000D02*
X257072000Y-59722000D01*
X257402000Y-66262000D02*
X257402000Y-59722000D01*
X257072000Y-66262000D02*
X257402000Y-66262000D01*
X254662000Y-59722000D02*
X254992000Y-59722000D01*
X254662000Y-66262000D02*
X254662000Y-59722000D01*
X254992000Y-66262000D02*
X254662000Y-66262000D01*
X266927000Y-59722000D02*
X266597000Y-59722000D01*
X266927000Y-66262000D02*
X266927000Y-59722000D01*
X266597000Y-66262000D02*
X266927000Y-66262000D01*
X264187000Y-59722000D02*
X264517000Y-59722000D01*
X264187000Y-66262000D02*
X264187000Y-59722000D01*
X264517000Y-66262000D02*
X264187000Y-66262000D01*
X263752000Y-59722000D02*
X263422000Y-59722000D01*
X263752000Y-66262000D02*
X263752000Y-59722000D01*
X263422000Y-66262000D02*
X263752000Y-66262000D01*
X261012000Y-59722000D02*
X261342000Y-59722000D01*
X261012000Y-66262000D02*
X261012000Y-59722000D01*
X261342000Y-66262000D02*
X261012000Y-66262000D01*
X260577000Y-59722000D02*
X260247000Y-59722000D01*
X260577000Y-66262000D02*
X260577000Y-59722000D01*
X260247000Y-66262000D02*
X260577000Y-66262000D01*
X257837000Y-59722000D02*
X258167000Y-59722000D01*
X257837000Y-66262000D02*
X257837000Y-59722000D01*
X258167000Y-66262000D02*
X257837000Y-66262000D01*
X251052000Y-59722000D02*
X250722000Y-59722000D01*
X251052000Y-66262000D02*
X251052000Y-59722000D01*
X250722000Y-66262000D02*
X251052000Y-66262000D01*
X248312000Y-59722000D02*
X248642000Y-59722000D01*
X248312000Y-66262000D02*
X248312000Y-59722000D01*
X248642000Y-66262000D02*
X248312000Y-66262000D01*
X207367000Y-66262000D02*
X207037000Y-66262000D01*
X207037000Y-66262000D02*
X207037000Y-59722000D01*
X207037000Y-59722000D02*
X207367000Y-59722000D01*
X209447000Y-66262000D02*
X209777000Y-66262000D01*
X209777000Y-66262000D02*
X209777000Y-59722000D01*
X209777000Y-59722000D02*
X209447000Y-59722000D01*
X212952000Y-59722000D02*
X212622000Y-59722000D01*
X212952000Y-66262000D02*
X212952000Y-59722000D01*
X212622000Y-66262000D02*
X212952000Y-66262000D01*
X210212000Y-59722000D02*
X210542000Y-59722000D01*
X210212000Y-66262000D02*
X210212000Y-59722000D01*
X210542000Y-66262000D02*
X210212000Y-66262000D01*
X220067000Y-66262000D02*
X219737000Y-66262000D01*
X219737000Y-66262000D02*
X219737000Y-59722000D01*
X219737000Y-59722000D02*
X220067000Y-59722000D01*
X222147000Y-66262000D02*
X222477000Y-66262000D01*
X222477000Y-66262000D02*
X222477000Y-59722000D01*
X222477000Y-59722000D02*
X222147000Y-59722000D01*
X219302000Y-59722000D02*
X218972000Y-59722000D01*
X219302000Y-66262000D02*
X219302000Y-59722000D01*
X218972000Y-66262000D02*
X219302000Y-66262000D01*
X216562000Y-59722000D02*
X216892000Y-59722000D01*
X216562000Y-66262000D02*
X216562000Y-59722000D01*
X216892000Y-66262000D02*
X216562000Y-66262000D01*
X213717000Y-66262000D02*
X213387000Y-66262000D01*
X213387000Y-66262000D02*
X213387000Y-59722000D01*
X213387000Y-59722000D02*
X213717000Y-59722000D01*
X215797000Y-66262000D02*
X216127000Y-66262000D01*
X216127000Y-66262000D02*
X216127000Y-59722000D01*
X216127000Y-59722000D02*
X215797000Y-59722000D01*
X206602000Y-59722000D02*
X206272000Y-59722000D01*
X206602000Y-66262000D02*
X206602000Y-59722000D01*
X206272000Y-66262000D02*
X206602000Y-66262000D01*
X203862000Y-59722000D02*
X204192000Y-59722000D01*
X203862000Y-66262000D02*
X203862000Y-59722000D01*
X204192000Y-66262000D02*
X203862000Y-66262000D01*
X201017000Y-66262000D02*
X200687000Y-66262000D01*
X200687000Y-66262000D02*
X200687000Y-59722000D01*
X200687000Y-59722000D02*
X201017000Y-59722000D01*
X203097000Y-66262000D02*
X203427000Y-66262000D01*
X203427000Y-66262000D02*
X203427000Y-59722000D01*
X203427000Y-59722000D02*
X203097000Y-59722000D01*
X172442000Y-66262000D02*
X172112000Y-66262000D01*
X172112000Y-66262000D02*
X172112000Y-59722000D01*
X172112000Y-59722000D02*
X172442000Y-59722000D01*
X174522000Y-66262000D02*
X174852000Y-66262000D01*
X174852000Y-66262000D02*
X174852000Y-59722000D01*
X174852000Y-59722000D02*
X174522000Y-59722000D01*
X178027000Y-59722000D02*
X177697000Y-59722000D01*
X178027000Y-66262000D02*
X178027000Y-59722000D01*
X177697000Y-66262000D02*
X178027000Y-66262000D01*
X175287000Y-59722000D02*
X175617000Y-59722000D01*
X175287000Y-66262000D02*
X175287000Y-59722000D01*
X175617000Y-66262000D02*
X175287000Y-66262000D01*
X162917000Y-66262000D02*
X162587000Y-66262000D01*
X162587000Y-66262000D02*
X162587000Y-59722000D01*
X162587000Y-59722000D02*
X162917000Y-59722000D01*
X164997000Y-66262000D02*
X165327000Y-66262000D01*
X165327000Y-66262000D02*
X165327000Y-59722000D01*
X165327000Y-59722000D02*
X164997000Y-59722000D01*
X162152000Y-59722000D02*
X161822000Y-59722000D01*
X162152000Y-66262000D02*
X162152000Y-59722000D01*
X161822000Y-66262000D02*
X162152000Y-66262000D01*
X159412000Y-59722000D02*
X159742000Y-59722000D01*
X159412000Y-66262000D02*
X159412000Y-59722000D01*
X159742000Y-66262000D02*
X159412000Y-66262000D01*
X156567000Y-66262000D02*
X156237000Y-66262000D01*
X156237000Y-66262000D02*
X156237000Y-59722000D01*
X156237000Y-59722000D02*
X156567000Y-59722000D01*
X158647000Y-66262000D02*
X158977000Y-66262000D01*
X158977000Y-66262000D02*
X158977000Y-59722000D01*
X158977000Y-59722000D02*
X158647000Y-59722000D01*
X171677000Y-59722000D02*
X171347000Y-59722000D01*
X171677000Y-66262000D02*
X171677000Y-59722000D01*
X171347000Y-66262000D02*
X171677000Y-66262000D01*
X168937000Y-59722000D02*
X169267000Y-59722000D01*
X168937000Y-66262000D02*
X168937000Y-59722000D01*
X169267000Y-66262000D02*
X168937000Y-66262000D01*
X166092000Y-66262000D02*
X165762000Y-66262000D01*
X165762000Y-66262000D02*
X165762000Y-59722000D01*
X165762000Y-59722000D02*
X166092000Y-59722000D01*
X168172000Y-66262000D02*
X168502000Y-66262000D01*
X168502000Y-66262000D02*
X168502000Y-59722000D01*
X168502000Y-59722000D02*
X168172000Y-59722000D01*
X239117000Y-66262000D02*
X238787000Y-66262000D01*
X238787000Y-66262000D02*
X238787000Y-59722000D01*
X238787000Y-59722000D02*
X239117000Y-59722000D01*
X241197000Y-66262000D02*
X241527000Y-66262000D01*
X241527000Y-66262000D02*
X241527000Y-59722000D01*
X241527000Y-59722000D02*
X241197000Y-59722000D01*
X244702000Y-59722000D02*
X244372000Y-59722000D01*
X244702000Y-66262000D02*
X244702000Y-59722000D01*
X244372000Y-66262000D02*
X244702000Y-66262000D01*
X241962000Y-59722000D02*
X242292000Y-59722000D01*
X241962000Y-66262000D02*
X241962000Y-59722000D01*
X242292000Y-66262000D02*
X241962000Y-66262000D01*
X229592000Y-66262000D02*
X229262000Y-66262000D01*
X229262000Y-66262000D02*
X229262000Y-59722000D01*
X229262000Y-59722000D02*
X229592000Y-59722000D01*
X231672000Y-66262000D02*
X232002000Y-66262000D01*
X232002000Y-66262000D02*
X232002000Y-59722000D01*
X232002000Y-59722000D02*
X231672000Y-59722000D01*
X228827000Y-59722000D02*
X228497000Y-59722000D01*
X228827000Y-66262000D02*
X228827000Y-59722000D01*
X228497000Y-66262000D02*
X228827000Y-66262000D01*
X226087000Y-59722000D02*
X226417000Y-59722000D01*
X226087000Y-66262000D02*
X226087000Y-59722000D01*
X226417000Y-66262000D02*
X226087000Y-66262000D01*
X223242000Y-66262000D02*
X222912000Y-66262000D01*
X222912000Y-66262000D02*
X222912000Y-59722000D01*
X222912000Y-59722000D02*
X223242000Y-59722000D01*
X225322000Y-66262000D02*
X225652000Y-66262000D01*
X225652000Y-66262000D02*
X225652000Y-59722000D01*
X225652000Y-59722000D02*
X225322000Y-59722000D01*
X238352000Y-59722000D02*
X238022000Y-59722000D01*
X238352000Y-66262000D02*
X238352000Y-59722000D01*
X238022000Y-66262000D02*
X238352000Y-66262000D01*
X235612000Y-59722000D02*
X235942000Y-59722000D01*
X235612000Y-66262000D02*
X235612000Y-59722000D01*
X235942000Y-66262000D02*
X235612000Y-66262000D01*
X232767000Y-66262000D02*
X232437000Y-66262000D01*
X232437000Y-66262000D02*
X232437000Y-59722000D01*
X232437000Y-59722000D02*
X232767000Y-59722000D01*
X234847000Y-66262000D02*
X235177000Y-66262000D01*
X235177000Y-66262000D02*
X235177000Y-59722000D01*
X235177000Y-59722000D02*
X234847000Y-59722000D01*
X197077000Y-59722000D02*
X196747000Y-59722000D01*
X197077000Y-66262000D02*
X197077000Y-59722000D01*
X196747000Y-66262000D02*
X197077000Y-66262000D01*
X194337000Y-59722000D02*
X194667000Y-59722000D01*
X194337000Y-66262000D02*
X194337000Y-59722000D01*
X194667000Y-66262000D02*
X194337000Y-66262000D01*
X197842000Y-66262000D02*
X197512000Y-66262000D01*
X197512000Y-66262000D02*
X197512000Y-59722000D01*
X197512000Y-59722000D02*
X197842000Y-59722000D01*
X199922000Y-66262000D02*
X200252000Y-66262000D01*
X200252000Y-66262000D02*
X200252000Y-59722000D01*
X200252000Y-59722000D02*
X199922000Y-59722000D01*
X187552000Y-59722000D02*
X187222000Y-59722000D01*
X187552000Y-66262000D02*
X187552000Y-59722000D01*
X187222000Y-66262000D02*
X187552000Y-66262000D01*
X184812000Y-59722000D02*
X185142000Y-59722000D01*
X184812000Y-66262000D02*
X184812000Y-59722000D01*
X185142000Y-66262000D02*
X184812000Y-66262000D01*
X181967000Y-66262000D02*
X181637000Y-66262000D01*
X181637000Y-66262000D02*
X181637000Y-59722000D01*
X181637000Y-59722000D02*
X181967000Y-59722000D01*
X184047000Y-66262000D02*
X184377000Y-66262000D01*
X184377000Y-66262000D02*
X184377000Y-59722000D01*
X184377000Y-59722000D02*
X184047000Y-59722000D01*
X181202000Y-59722000D02*
X180872000Y-59722000D01*
X181202000Y-66262000D02*
X181202000Y-59722000D01*
X180872000Y-66262000D02*
X181202000Y-66262000D01*
X178462000Y-59722000D02*
X178792000Y-59722000D01*
X178462000Y-66262000D02*
X178462000Y-59722000D01*
X178792000Y-66262000D02*
X178462000Y-66262000D01*
X191492000Y-66262000D02*
X191162000Y-66262000D01*
X191162000Y-66262000D02*
X191162000Y-59722000D01*
X191162000Y-59722000D02*
X191492000Y-59722000D01*
X193572000Y-66262000D02*
X193902000Y-66262000D01*
X193902000Y-66262000D02*
X193902000Y-59722000D01*
X193902000Y-59722000D02*
X193572000Y-59722000D01*
X188317000Y-66262000D02*
X187987000Y-66262000D01*
X187987000Y-66262000D02*
X187987000Y-59722000D01*
X187987000Y-59722000D02*
X188317000Y-59722000D01*
X190397000Y-66262000D02*
X190727000Y-66262000D01*
X190727000Y-66262000D02*
X190727000Y-59722000D01*
X190727000Y-59722000D02*
X190397000Y-59722000D01*
X152627000Y-59722000D02*
X152297000Y-59722000D01*
X152627000Y-66262000D02*
X152627000Y-59722000D01*
X152297000Y-66262000D02*
X152627000Y-66262000D01*
X149887000Y-59722000D02*
X150217000Y-59722000D01*
X149887000Y-66262000D02*
X149887000Y-59722000D01*
X150217000Y-66262000D02*
X149887000Y-66262000D01*
X153392000Y-66262000D02*
X153062000Y-66262000D01*
X153062000Y-66262000D02*
X153062000Y-59722000D01*
X153062000Y-59722000D02*
X153392000Y-59722000D01*
X155472000Y-66262000D02*
X155802000Y-66262000D01*
X155802000Y-66262000D02*
X155802000Y-59722000D01*
X155802000Y-59722000D02*
X155472000Y-59722000D01*
X140692000Y-66262000D02*
X140362000Y-66262000D01*
X140362000Y-66262000D02*
X140362000Y-59722000D01*
X140362000Y-59722000D02*
X140692000Y-59722000D01*
X142772000Y-66262000D02*
X143102000Y-66262000D01*
X143102000Y-66262000D02*
X143102000Y-59722000D01*
X143102000Y-59722000D02*
X142772000Y-59722000D01*
X139927000Y-59722000D02*
X139597000Y-59722000D01*
X139927000Y-66262000D02*
X139927000Y-59722000D01*
X139597000Y-66262000D02*
X139927000Y-66262000D01*
X137187000Y-59722000D02*
X137517000Y-59722000D01*
X137187000Y-66262000D02*
X137187000Y-59722000D01*
X137517000Y-66262000D02*
X137187000Y-66262000D01*
X134342000Y-66262000D02*
X134012000Y-66262000D01*
X134012000Y-66262000D02*
X134012000Y-59722000D01*
X134012000Y-59722000D02*
X134342000Y-59722000D01*
X136422000Y-66262000D02*
X136752000Y-66262000D01*
X136752000Y-66262000D02*
X136752000Y-59722000D01*
X136752000Y-59722000D02*
X136422000Y-59722000D01*
X149452000Y-59722000D02*
X149122000Y-59722000D01*
X149452000Y-66262000D02*
X149452000Y-59722000D01*
X149122000Y-66262000D02*
X149452000Y-66262000D01*
X146712000Y-59722000D02*
X147042000Y-59722000D01*
X146712000Y-66262000D02*
X146712000Y-59722000D01*
X147042000Y-66262000D02*
X146712000Y-66262000D01*
X146277000Y-59722000D02*
X145947000Y-59722000D01*
X146277000Y-66262000D02*
X146277000Y-59722000D01*
X145947000Y-66262000D02*
X146277000Y-66262000D01*
X143537000Y-59722000D02*
X143867000Y-59722000D01*
X143537000Y-66262000D02*
X143537000Y-59722000D01*
X143867000Y-66262000D02*
X143537000Y-66262000D01*
D10*
X242699214Y-85772000D02*
G75*
G03X242699214Y-85772000I-447214J0D01*
G01*
X231952000Y-71172000D02*
X244552000Y-71172000D01*
X244552000Y-75072000D02*
X244552000Y-86472000D01*
X231952000Y-75072000D02*
X231952000Y-86472000D01*
X244552000Y-90372000D02*
X231952000Y-90372000D01*
X235252000Y-75772000D02*
X242252000Y-75772000D01*
X241252000Y-80772000D02*
X234252000Y-80772000D01*
X242252000Y-75772000D02*
X241252000Y-80772000D01*
X240252000Y-85772000D02*
X241252000Y-80772000D01*
X233252000Y-85772000D02*
X240252000Y-85772000D01*
X234252000Y-80772000D02*
X233252000Y-85772000D01*
X235252000Y-75772000D02*
X234252000Y-80772000D01*
X221917000Y-75772000D02*
X220917000Y-80772000D01*
X220917000Y-80772000D02*
X219917000Y-85772000D01*
X219917000Y-85772000D02*
X226917000Y-85772000D01*
X226917000Y-85772000D02*
X227917000Y-80772000D01*
X228917000Y-75772000D02*
X227917000Y-80772000D01*
X227917000Y-80772000D02*
X220917000Y-80772000D01*
X221917000Y-75772000D02*
X228917000Y-75772000D01*
X231217000Y-90372000D02*
X218617000Y-90372000D01*
X218617000Y-75072000D02*
X218617000Y-86472000D01*
X231217000Y-75072000D02*
X231217000Y-86472000D01*
X218617000Y-71172000D02*
X231217000Y-71172000D01*
X229364214Y-85772000D02*
G75*
G03X229364214Y-85772000I-447214J0D01*
G01*
X211584214Y-85772000D02*
G75*
G03X211584214Y-85772000I-447214J0D01*
G01*
X200837000Y-71172000D02*
X213437000Y-71172000D01*
X213437000Y-75072000D02*
X213437000Y-86472000D01*
X200837000Y-75072000D02*
X200837000Y-86472000D01*
X213437000Y-90372000D02*
X200837000Y-90372000D01*
X204137000Y-75772000D02*
X211137000Y-75772000D01*
X210137000Y-80772000D02*
X203137000Y-80772000D01*
X211137000Y-75772000D02*
X210137000Y-80772000D01*
X209137000Y-85772000D02*
X210137000Y-80772000D01*
X202137000Y-85772000D02*
X209137000Y-85772000D01*
X203137000Y-80772000D02*
X202137000Y-85772000D01*
X204137000Y-75772000D02*
X203137000Y-80772000D01*
X190802000Y-75772000D02*
X189802000Y-80772000D01*
X189802000Y-80772000D02*
X188802000Y-85772000D01*
X188802000Y-85772000D02*
X195802000Y-85772000D01*
X195802000Y-85772000D02*
X196802000Y-80772000D01*
X197802000Y-75772000D02*
X196802000Y-80772000D01*
X196802000Y-80772000D02*
X189802000Y-80772000D01*
X190802000Y-75772000D02*
X197802000Y-75772000D01*
X200102000Y-90372000D02*
X187502000Y-90372000D01*
X187502000Y-75072000D02*
X187502000Y-86472000D01*
X200102000Y-75072000D02*
X200102000Y-86472000D01*
X187502000Y-71172000D02*
X200102000Y-71172000D01*
X198249214Y-85772000D02*
G75*
G03X198249214Y-85772000I-447214J0D01*
G01*
X173022000Y-75772000D02*
X172022000Y-80772000D01*
X172022000Y-80772000D02*
X171022000Y-85772000D01*
X171022000Y-85772000D02*
X178022000Y-85772000D01*
X178022000Y-85772000D02*
X179022000Y-80772000D01*
X180022000Y-75772000D02*
X179022000Y-80772000D01*
X179022000Y-80772000D02*
X172022000Y-80772000D01*
X173022000Y-75772000D02*
X180022000Y-75772000D01*
X182322000Y-90372000D02*
X169722000Y-90372000D01*
X169722000Y-75072000D02*
X169722000Y-86472000D01*
X182322000Y-75072000D02*
X182322000Y-86472000D01*
X169722000Y-71172000D02*
X182322000Y-71172000D01*
X180469214Y-85772000D02*
G75*
G03X180469214Y-85772000I-447214J0D01*
G01*
X167134214Y-85772000D02*
G75*
G03X167134214Y-85772000I-447214J0D01*
G01*
X156387000Y-71172000D02*
X168987000Y-71172000D01*
X168987000Y-75072000D02*
X168987000Y-86472000D01*
X156387000Y-75072000D02*
X156387000Y-86472000D01*
X168987000Y-90372000D02*
X156387000Y-90372000D01*
X159687000Y-75772000D02*
X166687000Y-75772000D01*
X165687000Y-80772000D02*
X158687000Y-80772000D01*
X166687000Y-75772000D02*
X165687000Y-80772000D01*
X164687000Y-85772000D02*
X165687000Y-80772000D01*
X157687000Y-85772000D02*
X164687000Y-85772000D01*
X158687000Y-80772000D02*
X157687000Y-85772000D01*
X159687000Y-75772000D02*
X158687000Y-80772000D01*
D11*
X246512000Y-88127000D02*
X246512000Y-88327000D01*
X247112000Y-87227000D02*
X246512000Y-88127000D01*
X248412000Y-88127000D02*
X248412000Y-88327000D01*
X247812000Y-87227000D02*
X248412000Y-88127000D01*
X246262000Y-87227000D02*
X248662000Y-87227000D01*
X246262000Y-80827000D02*
X246262000Y-87227000D01*
X248662000Y-80827000D02*
X246262000Y-80827000D01*
X248662000Y-87227000D02*
X248662000Y-80827000D01*
X240097000Y-124072000D02*
X250377000Y-124072000D01*
X240097000Y-103512000D02*
X240097000Y-124072000D01*
X250377000Y-103512000D02*
X240097000Y-103512000D01*
X250377000Y-124072000D02*
X250377000Y-103512000D01*
X242587000Y-124012000D02*
X244237000Y-124012000D01*
X242587000Y-103572000D02*
X242587000Y-124012000D01*
X247887000Y-103572000D02*
X242587000Y-103572000D01*
X247887000Y-124012000D02*
X247887000Y-103572000D01*
X246237000Y-124012000D02*
X247887000Y-124012000D01*
X244237000Y-124012000D02*
G75*
G02X246237000Y-124012000I1000000J0D01*
G01*
X236467000Y-124012000D02*
X236467000Y-113732000D01*
X218447000Y-124012000D02*
X236467000Y-124012000D01*
X218447000Y-113732000D02*
X218447000Y-124012000D01*
X236467000Y-113732000D02*
X218447000Y-113732000D01*
X236407000Y-121522000D02*
X236407000Y-119872000D01*
X218507000Y-121522000D02*
X236407000Y-121522000D01*
X218507000Y-116222000D02*
X218507000Y-121522000D01*
X236407000Y-116222000D02*
X218507000Y-116222000D01*
X236407000Y-117872000D02*
X236407000Y-116222000D01*
X236407000Y-119872000D02*
G75*
G02X236407000Y-117872000I0J1000000D01*
G01*
X271967000Y-98917000D02*
G75*
G02X271967000Y-96917000I0J1000000D01*
G01*
X271967000Y-96917000D02*
X271967000Y-95267000D01*
X271967000Y-95267000D02*
X251527000Y-95267000D01*
X251527000Y-95267000D02*
X251527000Y-100567000D01*
X251527000Y-100567000D02*
X271967000Y-100567000D01*
X271967000Y-100567000D02*
X271967000Y-98917000D01*
X272027000Y-92777000D02*
X251467000Y-92777000D01*
X251467000Y-92777000D02*
X251467000Y-103057000D01*
X251467000Y-103057000D02*
X272027000Y-103057000D01*
X272027000Y-103057000D02*
X272027000Y-92777000D01*
X271967000Y-110347000D02*
G75*
G02X271967000Y-108347000I0J1000000D01*
G01*
X271967000Y-108347000D02*
X271967000Y-106697000D01*
X271967000Y-106697000D02*
X254067000Y-106697000D01*
X254067000Y-106697000D02*
X254067000Y-111997000D01*
X254067000Y-111997000D02*
X271967000Y-111997000D01*
X271967000Y-111997000D02*
X271967000Y-110347000D01*
X272027000Y-104207000D02*
X254007000Y-104207000D01*
X254007000Y-104207000D02*
X254007000Y-114487000D01*
X254007000Y-114487000D02*
X272027000Y-114487000D01*
X272027000Y-114487000D02*
X272027000Y-104207000D01*
X190507000Y-113732000D02*
X190507000Y-124012000D01*
X211067000Y-113732000D02*
X190507000Y-113732000D01*
X211067000Y-124012000D02*
X211067000Y-113732000D01*
X190507000Y-124012000D02*
X211067000Y-124012000D01*
X190567000Y-116222000D02*
X190567000Y-117872000D01*
X211007000Y-116222000D02*
X190567000Y-116222000D01*
X211007000Y-121522000D02*
X211007000Y-116222000D01*
X190567000Y-121522000D02*
X211007000Y-121522000D01*
X190567000Y-119872000D02*
X190567000Y-121522000D01*
X190567000Y-117872000D02*
G75*
G02X190567000Y-119872000I0J-1000000D01*
G01*
X147567000Y-114487000D02*
X147567000Y-104207000D01*
X129547000Y-114487000D02*
X147567000Y-114487000D01*
X129547000Y-104207000D02*
X129547000Y-114487000D01*
X147567000Y-104207000D02*
X129547000Y-104207000D01*
X147507000Y-111997000D02*
X147507000Y-110347000D01*
X129607000Y-111997000D02*
X147507000Y-111997000D01*
X129607000Y-106697000D02*
X129607000Y-111997000D01*
X147507000Y-106697000D02*
X129607000Y-106697000D01*
X147507000Y-108347000D02*
X147507000Y-106697000D01*
X147507000Y-110347000D02*
G75*
G02X147507000Y-108347000I0J1000000D01*
G01*
X150047000Y-98917000D02*
G75*
G02X150047000Y-96917000I0J1000000D01*
G01*
X150047000Y-96917000D02*
X150047000Y-95267000D01*
X150047000Y-95267000D02*
X129607000Y-95267000D01*
X129607000Y-95267000D02*
X129607000Y-100567000D01*
X129607000Y-100567000D02*
X150047000Y-100567000D01*
X150047000Y-100567000D02*
X150047000Y-98917000D01*
X150107000Y-92777000D02*
X129547000Y-92777000D01*
X129547000Y-92777000D02*
X129547000Y-103057000D01*
X129547000Y-103057000D02*
X150107000Y-103057000D01*
X150107000Y-103057000D02*
X150107000Y-92777000D01*
X261814000Y-91814000D02*
X272094000Y-91814000D01*
X261814000Y-71254000D02*
X261814000Y-91814000D01*
X272094000Y-71254000D02*
X261814000Y-71254000D01*
X272094000Y-91814000D02*
X272094000Y-71254000D01*
X264304000Y-91754000D02*
X265954000Y-91754000D01*
X264304000Y-71314000D02*
X264304000Y-91754000D01*
X269604000Y-71314000D02*
X264304000Y-71314000D01*
X269604000Y-91754000D02*
X269604000Y-71314000D01*
X267954000Y-91754000D02*
X269604000Y-91754000D01*
X265954000Y-91754000D02*
G75*
G02X267954000Y-91754000I1000000J0D01*
G01*
X214900000Y-112455000D02*
G75*
G02X216900000Y-112455000I1000000J0D01*
G01*
X216900000Y-112455000D02*
X218550000Y-112455000D01*
X218550000Y-112455000D02*
X218550000Y-92015000D01*
X218550000Y-92015000D02*
X213250000Y-92015000D01*
X213250000Y-92015000D02*
X213250000Y-112455000D01*
X213250000Y-112455000D02*
X214900000Y-112455000D01*
X221040000Y-112515000D02*
X221040000Y-91955000D01*
X221040000Y-91955000D02*
X210760000Y-91955000D01*
X210760000Y-91955000D02*
X210760000Y-112515000D01*
X210760000Y-112515000D02*
X221040000Y-112515000D01*
X256397000Y-71187000D02*
G75*
G02X254397000Y-71187000I-1000000J0D01*
G01*
X254397000Y-71187000D02*
X252747000Y-71187000D01*
X252747000Y-71187000D02*
X252747000Y-91627000D01*
X252747000Y-91627000D02*
X258047000Y-91627000D01*
X258047000Y-91627000D02*
X258047000Y-71187000D01*
X258047000Y-71187000D02*
X256397000Y-71187000D01*
X250257000Y-71127000D02*
X250257000Y-91687000D01*
X250257000Y-91687000D02*
X260537000Y-91687000D01*
X260537000Y-91687000D02*
X260537000Y-71127000D01*
X260537000Y-71127000D02*
X250257000Y-71127000D01*
X179772000Y-112642000D02*
X190052000Y-112642000D01*
X179772000Y-92082000D02*
X179772000Y-112642000D01*
X190052000Y-92082000D02*
X179772000Y-92082000D01*
X190052000Y-112642000D02*
X190052000Y-92082000D01*
X182262000Y-112582000D02*
X183912000Y-112582000D01*
X182262000Y-92142000D02*
X182262000Y-112582000D01*
X187562000Y-92142000D02*
X182262000Y-92142000D01*
X187562000Y-112582000D02*
X187562000Y-92142000D01*
X185912000Y-112582000D02*
X187562000Y-112582000D01*
X183912000Y-112582000D02*
G75*
G02X185912000Y-112582000I1000000J0D01*
G01*
X133747000Y-91627000D02*
G75*
G02X135747000Y-91627000I1000000J0D01*
G01*
X135747000Y-91627000D02*
X137397000Y-91627000D01*
X137397000Y-91627000D02*
X137397000Y-71187000D01*
X137397000Y-71187000D02*
X132097000Y-71187000D01*
X132097000Y-71187000D02*
X132097000Y-91627000D01*
X132097000Y-91627000D02*
X133747000Y-91627000D01*
X139887000Y-91687000D02*
X139887000Y-71127000D01*
X139887000Y-71127000D02*
X129607000Y-71127000D01*
X129607000Y-71127000D02*
X129607000Y-91687000D01*
X129607000Y-91687000D02*
X139887000Y-91687000D01*
D12*
X169917000Y-104267000D02*
X169917000Y-103667000D01*
X169917000Y-104267000D02*
X169917000Y-104867000D01*
X169917000Y-104267000D02*
X170617000Y-104267000D01*
X167117000Y-104267000D02*
X168917000Y-104267000D01*
X168917000Y-104967000D02*
X168917000Y-103567000D01*
X168917000Y-103567000D02*
X169917000Y-104267000D01*
X169917000Y-104267000D02*
X168917000Y-104967000D01*
X170617000Y-104267000D02*
X171417000Y-104267000D01*
X165417000Y-104267000D02*
X167117000Y-104267000D01*
X171417000Y-104267000D02*
X171417000Y-103467000D01*
X171417000Y-103467000D02*
X167117000Y-103467000D01*
X167117000Y-103467000D02*
X167117000Y-104267000D01*
X172817000Y-104267000D02*
X171417000Y-104267000D01*
X171417000Y-104267000D02*
X171417000Y-105067000D01*
X171417000Y-105067000D02*
X167117000Y-105067000D01*
X167117000Y-105067000D02*
X167117000Y-104267000D01*
X198232000Y-105067000D02*
X198232000Y-104267000D01*
X202532000Y-105067000D02*
X198232000Y-105067000D01*
X202532000Y-104267000D02*
X202532000Y-105067000D01*
X203932000Y-104267000D02*
X202532000Y-104267000D01*
X198232000Y-103467000D02*
X198232000Y-104267000D01*
X202532000Y-103467000D02*
X198232000Y-103467000D01*
X202532000Y-104267000D02*
X202532000Y-103467000D01*
X196532000Y-104267000D02*
X198232000Y-104267000D01*
X201732000Y-104267000D02*
X202532000Y-104267000D01*
X201032000Y-104267000D02*
X200032000Y-104967000D01*
X200032000Y-103567000D02*
X201032000Y-104267000D01*
X200032000Y-104967000D02*
X200032000Y-103567000D01*
X198232000Y-104267000D02*
X200032000Y-104267000D01*
X201032000Y-104267000D02*
X201732000Y-104267000D01*
X201032000Y-104267000D02*
X201032000Y-104867000D01*
X201032000Y-104267000D02*
X201032000Y-103667000D01*
D11*
X162787000Y-93377000D02*
X162457000Y-93377000D01*
X162787000Y-99917000D02*
X162787000Y-93377000D01*
X162457000Y-99917000D02*
X162787000Y-99917000D01*
X160047000Y-93377000D02*
X160377000Y-93377000D01*
X160047000Y-99917000D02*
X160047000Y-93377000D01*
X160377000Y-99917000D02*
X160047000Y-99917000D01*
X191162000Y-100044000D02*
X191492000Y-100044000D01*
X191162000Y-93504000D02*
X191162000Y-100044000D01*
X191492000Y-93504000D02*
X191162000Y-93504000D01*
X193902000Y-100044000D02*
X193572000Y-100044000D01*
X193902000Y-93504000D02*
X193902000Y-100044000D01*
X193572000Y-93504000D02*
X193902000Y-93504000D01*
X178332000Y-93377000D02*
X178662000Y-93377000D01*
X178662000Y-93377000D02*
X178662000Y-99917000D01*
X178662000Y-99917000D02*
X178332000Y-99917000D01*
X176252000Y-93377000D02*
X175922000Y-93377000D01*
X175922000Y-93377000D02*
X175922000Y-99917000D01*
X175922000Y-99917000D02*
X176252000Y-99917000D01*
X209447000Y-93377000D02*
X209777000Y-93377000D01*
X209777000Y-93377000D02*
X209777000Y-99917000D01*
X209777000Y-99917000D02*
X209447000Y-99917000D01*
X207367000Y-93377000D02*
X207037000Y-93377000D01*
X207037000Y-93377000D02*
X207037000Y-99917000D01*
X207037000Y-99917000D02*
X207367000Y-99917000D01*
X172612000Y-98377000D02*
X172612000Y-96877000D01*
X171362000Y-94377000D02*
X166862000Y-94377000D01*
X165612000Y-96877000D02*
X165612000Y-98377000D01*
X166862000Y-100877000D02*
X171362000Y-100877000D01*
X203727000Y-98377000D02*
X203727000Y-96877000D01*
X202477000Y-94377000D02*
X197977000Y-94377000D01*
X196727000Y-96877000D02*
X196727000Y-98377000D01*
X197977000Y-100877000D02*
X202477000Y-100877000D01*
X229092000Y-100877000D02*
X233592000Y-100877000D01*
X227842000Y-96877000D02*
X227842000Y-98377000D01*
X233592000Y-94377000D02*
X229092000Y-94377000D01*
X234842000Y-98377000D02*
X234842000Y-96877000D01*
X164472000Y-113732000D02*
X164472000Y-124012000D01*
X182492000Y-113732000D02*
X164472000Y-113732000D01*
X182492000Y-124012000D02*
X182492000Y-113732000D01*
X164472000Y-124012000D02*
X182492000Y-124012000D01*
X164532000Y-116222000D02*
X164532000Y-117872000D01*
X182432000Y-116222000D02*
X164532000Y-116222000D01*
X182432000Y-121522000D02*
X182432000Y-116222000D01*
X164532000Y-121522000D02*
X182432000Y-121522000D01*
X164532000Y-119872000D02*
X164532000Y-121522000D01*
X164532000Y-117872000D02*
G75*
G02X164532000Y-119872000I0J-1000000D01*
G01*
X161477000Y-103512000D02*
X151197000Y-103512000D01*
X161477000Y-124072000D02*
X161477000Y-103512000D01*
X151197000Y-124072000D02*
X161477000Y-124072000D01*
X151197000Y-103512000D02*
X151197000Y-124072000D01*
X158987000Y-103572000D02*
X157337000Y-103572000D01*
X158987000Y-124012000D02*
X158987000Y-103572000D01*
X153687000Y-124012000D02*
X158987000Y-124012000D01*
X153687000Y-103572000D02*
X153687000Y-124012000D01*
X155337000Y-103572000D02*
X153687000Y-103572000D01*
X157337000Y-103572000D02*
G75*
G02X155337000Y-103572000I-1000000J0D01*
G01*
X249147000Y-100557000D02*
X243907000Y-100557000D01*
X249147000Y-97817000D02*
X243907000Y-97817000D01*
X249147000Y-100557000D02*
X249147000Y-97817000D01*
X243907000Y-100557000D02*
X243907000Y-97817000D01*
X249107000Y-92737000D02*
X249107000Y-95477000D01*
X243867000Y-92737000D02*
X243867000Y-95477000D01*
X243867000Y-95477000D02*
X249107000Y-95477000D01*
X243867000Y-92737000D02*
X249107000Y-92737000D01*
X156437000Y-98612000D02*
X153697000Y-98612000D01*
X156437000Y-93372000D02*
X153697000Y-93372000D01*
X153697000Y-93372000D02*
X153697000Y-98612000D01*
X156437000Y-93372000D02*
X156437000Y-98612000D01*
X203427000Y-111352000D02*
X198187000Y-111352000D01*
X203427000Y-108612000D02*
X198187000Y-108612000D01*
X203427000Y-111352000D02*
X203427000Y-108612000D01*
X198187000Y-111352000D02*
X198187000Y-108612000D01*
X143032000Y-119904000D02*
X143032000Y-121904000D01*
X129622000Y-115794000D02*
X132682000Y-115794000D01*
X129622000Y-126014000D02*
X129622000Y-115794000D01*
X132682000Y-126014000D02*
X129622000Y-126014000D01*
X142842000Y-126014000D02*
X136782000Y-126014000D01*
X142842000Y-123204000D02*
X142842000Y-126014000D01*
X142842000Y-115794000D02*
X142842000Y-118604000D01*
X136782000Y-115794000D02*
X142842000Y-115794000D01*
D10*
X246213333Y-69032380D02*
X245880000Y-68556190D01*
X245641904Y-69032380D02*
X245641904Y-68032380D01*
X246022857Y-68032380D01*
X246118095Y-68080000D01*
X246165714Y-68127619D01*
X246213333Y-68222857D01*
X246213333Y-68365714D01*
X246165714Y-68460952D01*
X246118095Y-68508571D01*
X246022857Y-68556190D01*
X245641904Y-68556190D01*
X246784761Y-68460952D02*
X246689523Y-68413333D01*
X246641904Y-68365714D01*
X246594285Y-68270476D01*
X246594285Y-68222857D01*
X246641904Y-68127619D01*
X246689523Y-68080000D01*
X246784761Y-68032380D01*
X246975238Y-68032380D01*
X247070476Y-68080000D01*
X247118095Y-68127619D01*
X247165714Y-68222857D01*
X247165714Y-68270476D01*
X247118095Y-68365714D01*
X247070476Y-68413333D01*
X246975238Y-68460952D01*
X246784761Y-68460952D01*
X246689523Y-68508571D01*
X246641904Y-68556190D01*
X246594285Y-68651428D01*
X246594285Y-68841904D01*
X246641904Y-68937142D01*
X246689523Y-68984761D01*
X246784761Y-69032380D01*
X246975238Y-69032380D01*
X247070476Y-68984761D01*
X247118095Y-68937142D01*
X247165714Y-68841904D01*
X247165714Y-68651428D01*
X247118095Y-68556190D01*
X247070476Y-68508571D01*
X246975238Y-68460952D01*
X151344380Y-82010095D02*
X152153904Y-82010095D01*
X152249142Y-81962476D01*
X152296761Y-81914857D01*
X152344380Y-81819619D01*
X152344380Y-81629142D01*
X152296761Y-81533904D01*
X152249142Y-81486285D01*
X152153904Y-81438666D01*
X151344380Y-81438666D01*
X152344380Y-80438666D02*
X152344380Y-81010095D01*
X152344380Y-80724380D02*
X151344380Y-80724380D01*
X151487238Y-80819619D01*
X151582476Y-80914857D01*
X151630095Y-81010095D01*
X151344380Y-79819619D02*
X151344380Y-79724380D01*
X151392000Y-79629142D01*
X151439619Y-79581523D01*
X151534857Y-79533904D01*
X151725333Y-79486285D01*
X151963428Y-79486285D01*
X152153904Y-79533904D01*
X152249142Y-79581523D01*
X152296761Y-79629142D01*
X152344380Y-79724380D01*
X152344380Y-79819619D01*
X152296761Y-79914857D01*
X152249142Y-79962476D01*
X152153904Y-80010095D01*
X151963428Y-80057714D01*
X151725333Y-80057714D01*
X151534857Y-80010095D01*
X151439619Y-79962476D01*
X151392000Y-79914857D01*
X151344380Y-79819619D01*
X242344380Y-96813666D02*
X241868190Y-97147000D01*
X242344380Y-97385095D02*
X241344380Y-97385095D01*
X241344380Y-97004142D01*
X241392000Y-96908904D01*
X241439619Y-96861285D01*
X241534857Y-96813666D01*
X241677714Y-96813666D01*
X241772952Y-96861285D01*
X241820571Y-96908904D01*
X241868190Y-97004142D01*
X241868190Y-97385095D01*
X242344380Y-95861285D02*
X242344380Y-96432714D01*
X242344380Y-96147000D02*
X241344380Y-96147000D01*
X241487238Y-96242238D01*
X241582476Y-96337476D01*
X241630095Y-96432714D01*
X223353333Y-102814380D02*
X223020000Y-102338190D01*
X222781904Y-102814380D02*
X222781904Y-101814380D01*
X223162857Y-101814380D01*
X223258095Y-101862000D01*
X223305714Y-101909619D01*
X223353333Y-102004857D01*
X223353333Y-102147714D01*
X223305714Y-102242952D01*
X223258095Y-102290571D01*
X223162857Y-102338190D01*
X222781904Y-102338190D01*
X223734285Y-101909619D02*
X223781904Y-101862000D01*
X223877142Y-101814380D01*
X224115238Y-101814380D01*
X224210476Y-101862000D01*
X224258095Y-101909619D01*
X224305714Y-102004857D01*
X224305714Y-102100095D01*
X224258095Y-102242952D01*
X223686666Y-102814380D01*
X224305714Y-102814380D01*
X252817333Y-69032380D02*
X252484000Y-68556190D01*
X252245904Y-69032380D02*
X252245904Y-68032380D01*
X252626857Y-68032380D01*
X252722095Y-68080000D01*
X252769714Y-68127619D01*
X252817333Y-68222857D01*
X252817333Y-68365714D01*
X252769714Y-68460952D01*
X252722095Y-68508571D01*
X252626857Y-68556190D01*
X252245904Y-68556190D01*
X253150666Y-68032380D02*
X253769714Y-68032380D01*
X253436380Y-68413333D01*
X253579238Y-68413333D01*
X253674476Y-68460952D01*
X253722095Y-68508571D01*
X253769714Y-68603809D01*
X253769714Y-68841904D01*
X253722095Y-68937142D01*
X253674476Y-68984761D01*
X253579238Y-69032380D01*
X253293523Y-69032380D01*
X253198285Y-68984761D01*
X253150666Y-68937142D01*
X255865333Y-69032380D02*
X255532000Y-68556190D01*
X255293904Y-69032380D02*
X255293904Y-68032380D01*
X255674857Y-68032380D01*
X255770095Y-68080000D01*
X255817714Y-68127619D01*
X255865333Y-68222857D01*
X255865333Y-68365714D01*
X255817714Y-68460952D01*
X255770095Y-68508571D01*
X255674857Y-68556190D01*
X255293904Y-68556190D01*
X256722476Y-68365714D02*
X256722476Y-69032380D01*
X256484380Y-67984761D02*
X256246285Y-68699047D01*
X256865333Y-68699047D01*
X265517333Y-69032380D02*
X265184000Y-68556190D01*
X264945904Y-69032380D02*
X264945904Y-68032380D01*
X265326857Y-68032380D01*
X265422095Y-68080000D01*
X265469714Y-68127619D01*
X265517333Y-68222857D01*
X265517333Y-68365714D01*
X265469714Y-68460952D01*
X265422095Y-68508571D01*
X265326857Y-68556190D01*
X264945904Y-68556190D01*
X266422095Y-68032380D02*
X265945904Y-68032380D01*
X265898285Y-68508571D01*
X265945904Y-68460952D01*
X266041142Y-68413333D01*
X266279238Y-68413333D01*
X266374476Y-68460952D01*
X266422095Y-68508571D01*
X266469714Y-68603809D01*
X266469714Y-68841904D01*
X266422095Y-68937142D01*
X266374476Y-68984761D01*
X266279238Y-69032380D01*
X266041142Y-69032380D01*
X265945904Y-68984761D01*
X265898285Y-68937142D01*
X262215333Y-69032380D02*
X261882000Y-68556190D01*
X261643904Y-69032380D02*
X261643904Y-68032380D01*
X262024857Y-68032380D01*
X262120095Y-68080000D01*
X262167714Y-68127619D01*
X262215333Y-68222857D01*
X262215333Y-68365714D01*
X262167714Y-68460952D01*
X262120095Y-68508571D01*
X262024857Y-68556190D01*
X261643904Y-68556190D01*
X263072476Y-68032380D02*
X262882000Y-68032380D01*
X262786761Y-68080000D01*
X262739142Y-68127619D01*
X262643904Y-68270476D01*
X262596285Y-68460952D01*
X262596285Y-68841904D01*
X262643904Y-68937142D01*
X262691523Y-68984761D01*
X262786761Y-69032380D01*
X262977238Y-69032380D01*
X263072476Y-68984761D01*
X263120095Y-68937142D01*
X263167714Y-68841904D01*
X263167714Y-68603809D01*
X263120095Y-68508571D01*
X263072476Y-68460952D01*
X262977238Y-68413333D01*
X262786761Y-68413333D01*
X262691523Y-68460952D01*
X262643904Y-68508571D01*
X262596285Y-68603809D01*
X259167333Y-69032380D02*
X258834000Y-68556190D01*
X258595904Y-69032380D02*
X258595904Y-68032380D01*
X258976857Y-68032380D01*
X259072095Y-68080000D01*
X259119714Y-68127619D01*
X259167333Y-68222857D01*
X259167333Y-68365714D01*
X259119714Y-68460952D01*
X259072095Y-68508571D01*
X258976857Y-68556190D01*
X258595904Y-68556190D01*
X259500666Y-68032380D02*
X260167333Y-68032380D01*
X259738761Y-69032380D01*
X249515333Y-69032380D02*
X249182000Y-68556190D01*
X248943904Y-69032380D02*
X248943904Y-68032380D01*
X249324857Y-68032380D01*
X249420095Y-68080000D01*
X249467714Y-68127619D01*
X249515333Y-68222857D01*
X249515333Y-68365714D01*
X249467714Y-68460952D01*
X249420095Y-68508571D01*
X249324857Y-68556190D01*
X248943904Y-68556190D01*
X249991523Y-69032380D02*
X250182000Y-69032380D01*
X250277238Y-68984761D01*
X250324857Y-68937142D01*
X250420095Y-68794285D01*
X250467714Y-68603809D01*
X250467714Y-68222857D01*
X250420095Y-68127619D01*
X250372476Y-68080000D01*
X250277238Y-68032380D01*
X250086761Y-68032380D01*
X249991523Y-68080000D01*
X249943904Y-68127619D01*
X249896285Y-68222857D01*
X249896285Y-68460952D01*
X249943904Y-68556190D01*
X249991523Y-68603809D01*
X250086761Y-68651428D01*
X250277238Y-68651428D01*
X250372476Y-68603809D01*
X250420095Y-68556190D01*
X250467714Y-68460952D01*
X207637142Y-69032380D02*
X207303809Y-68556190D01*
X207065714Y-69032380D02*
X207065714Y-68032380D01*
X207446666Y-68032380D01*
X207541904Y-68080000D01*
X207589523Y-68127619D01*
X207637142Y-68222857D01*
X207637142Y-68365714D01*
X207589523Y-68460952D01*
X207541904Y-68508571D01*
X207446666Y-68556190D01*
X207065714Y-68556190D01*
X208589523Y-69032380D02*
X208018095Y-69032380D01*
X208303809Y-69032380D02*
X208303809Y-68032380D01*
X208208571Y-68175238D01*
X208113333Y-68270476D01*
X208018095Y-68318095D01*
X209208571Y-68032380D02*
X209303809Y-68032380D01*
X209399047Y-68080000D01*
X209446666Y-68127619D01*
X209494285Y-68222857D01*
X209541904Y-68413333D01*
X209541904Y-68651428D01*
X209494285Y-68841904D01*
X209446666Y-68937142D01*
X209399047Y-68984761D01*
X209303809Y-69032380D01*
X209208571Y-69032380D01*
X209113333Y-68984761D01*
X209065714Y-68937142D01*
X209018095Y-68841904D01*
X208970476Y-68651428D01*
X208970476Y-68413333D01*
X209018095Y-68222857D01*
X209065714Y-68127619D01*
X209113333Y-68080000D01*
X209208571Y-68032380D01*
X210939142Y-69032380D02*
X210605809Y-68556190D01*
X210367714Y-69032380D02*
X210367714Y-68032380D01*
X210748666Y-68032380D01*
X210843904Y-68080000D01*
X210891523Y-68127619D01*
X210939142Y-68222857D01*
X210939142Y-68365714D01*
X210891523Y-68460952D01*
X210843904Y-68508571D01*
X210748666Y-68556190D01*
X210367714Y-68556190D01*
X211891523Y-69032380D02*
X211320095Y-69032380D01*
X211605809Y-69032380D02*
X211605809Y-68032380D01*
X211510571Y-68175238D01*
X211415333Y-68270476D01*
X211320095Y-68318095D01*
X212843904Y-69032380D02*
X212272476Y-69032380D01*
X212558190Y-69032380D02*
X212558190Y-68032380D01*
X212462952Y-68175238D01*
X212367714Y-68270476D01*
X212272476Y-68318095D01*
X220337142Y-69032380D02*
X220003809Y-68556190D01*
X219765714Y-69032380D02*
X219765714Y-68032380D01*
X220146666Y-68032380D01*
X220241904Y-68080000D01*
X220289523Y-68127619D01*
X220337142Y-68222857D01*
X220337142Y-68365714D01*
X220289523Y-68460952D01*
X220241904Y-68508571D01*
X220146666Y-68556190D01*
X219765714Y-68556190D01*
X221289523Y-69032380D02*
X220718095Y-69032380D01*
X221003809Y-69032380D02*
X221003809Y-68032380D01*
X220908571Y-68175238D01*
X220813333Y-68270476D01*
X220718095Y-68318095D01*
X221670476Y-68127619D02*
X221718095Y-68080000D01*
X221813333Y-68032380D01*
X222051428Y-68032380D01*
X222146666Y-68080000D01*
X222194285Y-68127619D01*
X222241904Y-68222857D01*
X222241904Y-68318095D01*
X222194285Y-68460952D01*
X221622857Y-69032380D01*
X222241904Y-69032380D01*
X217289142Y-69032380D02*
X216955809Y-68556190D01*
X216717714Y-69032380D02*
X216717714Y-68032380D01*
X217098666Y-68032380D01*
X217193904Y-68080000D01*
X217241523Y-68127619D01*
X217289142Y-68222857D01*
X217289142Y-68365714D01*
X217241523Y-68460952D01*
X217193904Y-68508571D01*
X217098666Y-68556190D01*
X216717714Y-68556190D01*
X218241523Y-69032380D02*
X217670095Y-69032380D01*
X217955809Y-69032380D02*
X217955809Y-68032380D01*
X217860571Y-68175238D01*
X217765333Y-68270476D01*
X217670095Y-68318095D01*
X218574857Y-68032380D02*
X219193904Y-68032380D01*
X218860571Y-68413333D01*
X219003428Y-68413333D01*
X219098666Y-68460952D01*
X219146285Y-68508571D01*
X219193904Y-68603809D01*
X219193904Y-68841904D01*
X219146285Y-68937142D01*
X219098666Y-68984761D01*
X219003428Y-69032380D01*
X218717714Y-69032380D01*
X218622476Y-68984761D01*
X218574857Y-68937142D01*
X213987142Y-69032380D02*
X213653809Y-68556190D01*
X213415714Y-69032380D02*
X213415714Y-68032380D01*
X213796666Y-68032380D01*
X213891904Y-68080000D01*
X213939523Y-68127619D01*
X213987142Y-68222857D01*
X213987142Y-68365714D01*
X213939523Y-68460952D01*
X213891904Y-68508571D01*
X213796666Y-68556190D01*
X213415714Y-68556190D01*
X214939523Y-69032380D02*
X214368095Y-69032380D01*
X214653809Y-69032380D02*
X214653809Y-68032380D01*
X214558571Y-68175238D01*
X214463333Y-68270476D01*
X214368095Y-68318095D01*
X215796666Y-68365714D02*
X215796666Y-69032380D01*
X215558571Y-67984761D02*
X215320476Y-68699047D01*
X215939523Y-68699047D01*
X204589142Y-69032380D02*
X204255809Y-68556190D01*
X204017714Y-69032380D02*
X204017714Y-68032380D01*
X204398666Y-68032380D01*
X204493904Y-68080000D01*
X204541523Y-68127619D01*
X204589142Y-68222857D01*
X204589142Y-68365714D01*
X204541523Y-68460952D01*
X204493904Y-68508571D01*
X204398666Y-68556190D01*
X204017714Y-68556190D01*
X205541523Y-69032380D02*
X204970095Y-69032380D01*
X205255809Y-69032380D02*
X205255809Y-68032380D01*
X205160571Y-68175238D01*
X205065333Y-68270476D01*
X204970095Y-68318095D01*
X206446285Y-68032380D02*
X205970095Y-68032380D01*
X205922476Y-68508571D01*
X205970095Y-68460952D01*
X206065333Y-68413333D01*
X206303428Y-68413333D01*
X206398666Y-68460952D01*
X206446285Y-68508571D01*
X206493904Y-68603809D01*
X206493904Y-68841904D01*
X206446285Y-68937142D01*
X206398666Y-68984761D01*
X206303428Y-69032380D01*
X206065333Y-69032380D01*
X205970095Y-68984761D01*
X205922476Y-68937142D01*
X201541142Y-69032380D02*
X201207809Y-68556190D01*
X200969714Y-69032380D02*
X200969714Y-68032380D01*
X201350666Y-68032380D01*
X201445904Y-68080000D01*
X201493523Y-68127619D01*
X201541142Y-68222857D01*
X201541142Y-68365714D01*
X201493523Y-68460952D01*
X201445904Y-68508571D01*
X201350666Y-68556190D01*
X200969714Y-68556190D01*
X202493523Y-69032380D02*
X201922095Y-69032380D01*
X202207809Y-69032380D02*
X202207809Y-68032380D01*
X202112571Y-68175238D01*
X202017333Y-68270476D01*
X201922095Y-68318095D01*
X203350666Y-68032380D02*
X203160190Y-68032380D01*
X203064952Y-68080000D01*
X203017333Y-68127619D01*
X202922095Y-68270476D01*
X202874476Y-68460952D01*
X202874476Y-68841904D01*
X202922095Y-68937142D01*
X202969714Y-68984761D01*
X203064952Y-69032380D01*
X203255428Y-69032380D01*
X203350666Y-68984761D01*
X203398285Y-68937142D01*
X203445904Y-68841904D01*
X203445904Y-68603809D01*
X203398285Y-68508571D01*
X203350666Y-68460952D01*
X203255428Y-68413333D01*
X203064952Y-68413333D01*
X202969714Y-68460952D01*
X202922095Y-68508571D01*
X202874476Y-68603809D01*
X172839142Y-69032380D02*
X172505809Y-68556190D01*
X172267714Y-69032380D02*
X172267714Y-68032380D01*
X172648666Y-68032380D01*
X172743904Y-68080000D01*
X172791523Y-68127619D01*
X172839142Y-68222857D01*
X172839142Y-68365714D01*
X172791523Y-68460952D01*
X172743904Y-68508571D01*
X172648666Y-68556190D01*
X172267714Y-68556190D01*
X173791523Y-69032380D02*
X173220095Y-69032380D01*
X173505809Y-69032380D02*
X173505809Y-68032380D01*
X173410571Y-68175238D01*
X173315333Y-68270476D01*
X173220095Y-68318095D01*
X174124857Y-68032380D02*
X174791523Y-68032380D01*
X174362952Y-69032380D01*
X176141142Y-69032380D02*
X175807809Y-68556190D01*
X175569714Y-69032380D02*
X175569714Y-68032380D01*
X175950666Y-68032380D01*
X176045904Y-68080000D01*
X176093523Y-68127619D01*
X176141142Y-68222857D01*
X176141142Y-68365714D01*
X176093523Y-68460952D01*
X176045904Y-68508571D01*
X175950666Y-68556190D01*
X175569714Y-68556190D01*
X177093523Y-69032380D02*
X176522095Y-69032380D01*
X176807809Y-69032380D02*
X176807809Y-68032380D01*
X176712571Y-68175238D01*
X176617333Y-68270476D01*
X176522095Y-68318095D01*
X177664952Y-68460952D02*
X177569714Y-68413333D01*
X177522095Y-68365714D01*
X177474476Y-68270476D01*
X177474476Y-68222857D01*
X177522095Y-68127619D01*
X177569714Y-68080000D01*
X177664952Y-68032380D01*
X177855428Y-68032380D01*
X177950666Y-68080000D01*
X177998285Y-68127619D01*
X178045904Y-68222857D01*
X178045904Y-68270476D01*
X177998285Y-68365714D01*
X177950666Y-68413333D01*
X177855428Y-68460952D01*
X177664952Y-68460952D01*
X177569714Y-68508571D01*
X177522095Y-68556190D01*
X177474476Y-68651428D01*
X177474476Y-68841904D01*
X177522095Y-68937142D01*
X177569714Y-68984761D01*
X177664952Y-69032380D01*
X177855428Y-69032380D01*
X177950666Y-68984761D01*
X177998285Y-68937142D01*
X178045904Y-68841904D01*
X178045904Y-68651428D01*
X177998285Y-68556190D01*
X177950666Y-68508571D01*
X177855428Y-68460952D01*
X163187142Y-69032380D02*
X162853809Y-68556190D01*
X162615714Y-69032380D02*
X162615714Y-68032380D01*
X162996666Y-68032380D01*
X163091904Y-68080000D01*
X163139523Y-68127619D01*
X163187142Y-68222857D01*
X163187142Y-68365714D01*
X163139523Y-68460952D01*
X163091904Y-68508571D01*
X162996666Y-68556190D01*
X162615714Y-68556190D01*
X164139523Y-69032380D02*
X163568095Y-69032380D01*
X163853809Y-69032380D02*
X163853809Y-68032380D01*
X163758571Y-68175238D01*
X163663333Y-68270476D01*
X163568095Y-68318095D01*
X164615714Y-69032380D02*
X164806190Y-69032380D01*
X164901428Y-68984761D01*
X164949047Y-68937142D01*
X165044285Y-68794285D01*
X165091904Y-68603809D01*
X165091904Y-68222857D01*
X165044285Y-68127619D01*
X164996666Y-68080000D01*
X164901428Y-68032380D01*
X164710952Y-68032380D01*
X164615714Y-68080000D01*
X164568095Y-68127619D01*
X164520476Y-68222857D01*
X164520476Y-68460952D01*
X164568095Y-68556190D01*
X164615714Y-68603809D01*
X164710952Y-68651428D01*
X164901428Y-68651428D01*
X164996666Y-68603809D01*
X165044285Y-68556190D01*
X165091904Y-68460952D01*
X160139142Y-69032380D02*
X159805809Y-68556190D01*
X159567714Y-69032380D02*
X159567714Y-68032380D01*
X159948666Y-68032380D01*
X160043904Y-68080000D01*
X160091523Y-68127619D01*
X160139142Y-68222857D01*
X160139142Y-68365714D01*
X160091523Y-68460952D01*
X160043904Y-68508571D01*
X159948666Y-68556190D01*
X159567714Y-68556190D01*
X160520095Y-68127619D02*
X160567714Y-68080000D01*
X160662952Y-68032380D01*
X160901047Y-68032380D01*
X160996285Y-68080000D01*
X161043904Y-68127619D01*
X161091523Y-68222857D01*
X161091523Y-68318095D01*
X161043904Y-68460952D01*
X160472476Y-69032380D01*
X161091523Y-69032380D01*
X161710571Y-68032380D02*
X161805809Y-68032380D01*
X161901047Y-68080000D01*
X161948666Y-68127619D01*
X161996285Y-68222857D01*
X162043904Y-68413333D01*
X162043904Y-68651428D01*
X161996285Y-68841904D01*
X161948666Y-68937142D01*
X161901047Y-68984761D01*
X161805809Y-69032380D01*
X161710571Y-69032380D01*
X161615333Y-68984761D01*
X161567714Y-68937142D01*
X161520095Y-68841904D01*
X161472476Y-68651428D01*
X161472476Y-68413333D01*
X161520095Y-68222857D01*
X161567714Y-68127619D01*
X161615333Y-68080000D01*
X161710571Y-68032380D01*
X157091142Y-69032380D02*
X156757809Y-68556190D01*
X156519714Y-69032380D02*
X156519714Y-68032380D01*
X156900666Y-68032380D01*
X156995904Y-68080000D01*
X157043523Y-68127619D01*
X157091142Y-68222857D01*
X157091142Y-68365714D01*
X157043523Y-68460952D01*
X156995904Y-68508571D01*
X156900666Y-68556190D01*
X156519714Y-68556190D01*
X157472095Y-68127619D02*
X157519714Y-68080000D01*
X157614952Y-68032380D01*
X157853047Y-68032380D01*
X157948285Y-68080000D01*
X157995904Y-68127619D01*
X158043523Y-68222857D01*
X158043523Y-68318095D01*
X157995904Y-68460952D01*
X157424476Y-69032380D01*
X158043523Y-69032380D01*
X158995904Y-69032380D02*
X158424476Y-69032380D01*
X158710190Y-69032380D02*
X158710190Y-68032380D01*
X158614952Y-68175238D01*
X158519714Y-68270476D01*
X158424476Y-68318095D01*
X169537142Y-69032380D02*
X169203809Y-68556190D01*
X168965714Y-69032380D02*
X168965714Y-68032380D01*
X169346666Y-68032380D01*
X169441904Y-68080000D01*
X169489523Y-68127619D01*
X169537142Y-68222857D01*
X169537142Y-68365714D01*
X169489523Y-68460952D01*
X169441904Y-68508571D01*
X169346666Y-68556190D01*
X168965714Y-68556190D01*
X169918095Y-68127619D02*
X169965714Y-68080000D01*
X170060952Y-68032380D01*
X170299047Y-68032380D01*
X170394285Y-68080000D01*
X170441904Y-68127619D01*
X170489523Y-68222857D01*
X170489523Y-68318095D01*
X170441904Y-68460952D01*
X169870476Y-69032380D01*
X170489523Y-69032380D01*
X170870476Y-68127619D02*
X170918095Y-68080000D01*
X171013333Y-68032380D01*
X171251428Y-68032380D01*
X171346666Y-68080000D01*
X171394285Y-68127619D01*
X171441904Y-68222857D01*
X171441904Y-68318095D01*
X171394285Y-68460952D01*
X170822857Y-69032380D01*
X171441904Y-69032380D01*
X166489142Y-69032380D02*
X166155809Y-68556190D01*
X165917714Y-69032380D02*
X165917714Y-68032380D01*
X166298666Y-68032380D01*
X166393904Y-68080000D01*
X166441523Y-68127619D01*
X166489142Y-68222857D01*
X166489142Y-68365714D01*
X166441523Y-68460952D01*
X166393904Y-68508571D01*
X166298666Y-68556190D01*
X165917714Y-68556190D01*
X166870095Y-68127619D02*
X166917714Y-68080000D01*
X167012952Y-68032380D01*
X167251047Y-68032380D01*
X167346285Y-68080000D01*
X167393904Y-68127619D01*
X167441523Y-68222857D01*
X167441523Y-68318095D01*
X167393904Y-68460952D01*
X166822476Y-69032380D01*
X167441523Y-69032380D01*
X167774857Y-68032380D02*
X168393904Y-68032380D01*
X168060571Y-68413333D01*
X168203428Y-68413333D01*
X168298666Y-68460952D01*
X168346285Y-68508571D01*
X168393904Y-68603809D01*
X168393904Y-68841904D01*
X168346285Y-68937142D01*
X168298666Y-68984761D01*
X168203428Y-69032380D01*
X167917714Y-69032380D01*
X167822476Y-68984761D01*
X167774857Y-68937142D01*
X239641142Y-69032380D02*
X239307809Y-68556190D01*
X239069714Y-69032380D02*
X239069714Y-68032380D01*
X239450666Y-68032380D01*
X239545904Y-68080000D01*
X239593523Y-68127619D01*
X239641142Y-68222857D01*
X239641142Y-68365714D01*
X239593523Y-68460952D01*
X239545904Y-68508571D01*
X239450666Y-68556190D01*
X239069714Y-68556190D01*
X240022095Y-68127619D02*
X240069714Y-68080000D01*
X240164952Y-68032380D01*
X240403047Y-68032380D01*
X240498285Y-68080000D01*
X240545904Y-68127619D01*
X240593523Y-68222857D01*
X240593523Y-68318095D01*
X240545904Y-68460952D01*
X239974476Y-69032380D01*
X240593523Y-69032380D01*
X241450666Y-68365714D02*
X241450666Y-69032380D01*
X241212571Y-67984761D02*
X240974476Y-68699047D01*
X241593523Y-68699047D01*
X242689142Y-69032380D02*
X242355809Y-68556190D01*
X242117714Y-69032380D02*
X242117714Y-68032380D01*
X242498666Y-68032380D01*
X242593904Y-68080000D01*
X242641523Y-68127619D01*
X242689142Y-68222857D01*
X242689142Y-68365714D01*
X242641523Y-68460952D01*
X242593904Y-68508571D01*
X242498666Y-68556190D01*
X242117714Y-68556190D01*
X243070095Y-68127619D02*
X243117714Y-68080000D01*
X243212952Y-68032380D01*
X243451047Y-68032380D01*
X243546285Y-68080000D01*
X243593904Y-68127619D01*
X243641523Y-68222857D01*
X243641523Y-68318095D01*
X243593904Y-68460952D01*
X243022476Y-69032380D01*
X243641523Y-69032380D01*
X244546285Y-68032380D02*
X244070095Y-68032380D01*
X244022476Y-68508571D01*
X244070095Y-68460952D01*
X244165333Y-68413333D01*
X244403428Y-68413333D01*
X244498666Y-68460952D01*
X244546285Y-68508571D01*
X244593904Y-68603809D01*
X244593904Y-68841904D01*
X244546285Y-68937142D01*
X244498666Y-68984761D01*
X244403428Y-69032380D01*
X244165333Y-69032380D01*
X244070095Y-68984761D01*
X244022476Y-68937142D01*
X229989142Y-69032380D02*
X229655809Y-68556190D01*
X229417714Y-69032380D02*
X229417714Y-68032380D01*
X229798666Y-68032380D01*
X229893904Y-68080000D01*
X229941523Y-68127619D01*
X229989142Y-68222857D01*
X229989142Y-68365714D01*
X229941523Y-68460952D01*
X229893904Y-68508571D01*
X229798666Y-68556190D01*
X229417714Y-68556190D01*
X230370095Y-68127619D02*
X230417714Y-68080000D01*
X230512952Y-68032380D01*
X230751047Y-68032380D01*
X230846285Y-68080000D01*
X230893904Y-68127619D01*
X230941523Y-68222857D01*
X230941523Y-68318095D01*
X230893904Y-68460952D01*
X230322476Y-69032380D01*
X230941523Y-69032380D01*
X231798666Y-68032380D02*
X231608190Y-68032380D01*
X231512952Y-68080000D01*
X231465333Y-68127619D01*
X231370095Y-68270476D01*
X231322476Y-68460952D01*
X231322476Y-68841904D01*
X231370095Y-68937142D01*
X231417714Y-68984761D01*
X231512952Y-69032380D01*
X231703428Y-69032380D01*
X231798666Y-68984761D01*
X231846285Y-68937142D01*
X231893904Y-68841904D01*
X231893904Y-68603809D01*
X231846285Y-68508571D01*
X231798666Y-68460952D01*
X231703428Y-68413333D01*
X231512952Y-68413333D01*
X231417714Y-68460952D01*
X231370095Y-68508571D01*
X231322476Y-68603809D01*
X226687142Y-69032380D02*
X226353809Y-68556190D01*
X226115714Y-69032380D02*
X226115714Y-68032380D01*
X226496666Y-68032380D01*
X226591904Y-68080000D01*
X226639523Y-68127619D01*
X226687142Y-68222857D01*
X226687142Y-68365714D01*
X226639523Y-68460952D01*
X226591904Y-68508571D01*
X226496666Y-68556190D01*
X226115714Y-68556190D01*
X227068095Y-68127619D02*
X227115714Y-68080000D01*
X227210952Y-68032380D01*
X227449047Y-68032380D01*
X227544285Y-68080000D01*
X227591904Y-68127619D01*
X227639523Y-68222857D01*
X227639523Y-68318095D01*
X227591904Y-68460952D01*
X227020476Y-69032380D01*
X227639523Y-69032380D01*
X227972857Y-68032380D02*
X228639523Y-68032380D01*
X228210952Y-69032380D01*
X223639142Y-69032380D02*
X223305809Y-68556190D01*
X223067714Y-69032380D02*
X223067714Y-68032380D01*
X223448666Y-68032380D01*
X223543904Y-68080000D01*
X223591523Y-68127619D01*
X223639142Y-68222857D01*
X223639142Y-68365714D01*
X223591523Y-68460952D01*
X223543904Y-68508571D01*
X223448666Y-68556190D01*
X223067714Y-68556190D01*
X224020095Y-68127619D02*
X224067714Y-68080000D01*
X224162952Y-68032380D01*
X224401047Y-68032380D01*
X224496285Y-68080000D01*
X224543904Y-68127619D01*
X224591523Y-68222857D01*
X224591523Y-68318095D01*
X224543904Y-68460952D01*
X223972476Y-69032380D01*
X224591523Y-69032380D01*
X225162952Y-68460952D02*
X225067714Y-68413333D01*
X225020095Y-68365714D01*
X224972476Y-68270476D01*
X224972476Y-68222857D01*
X225020095Y-68127619D01*
X225067714Y-68080000D01*
X225162952Y-68032380D01*
X225353428Y-68032380D01*
X225448666Y-68080000D01*
X225496285Y-68127619D01*
X225543904Y-68222857D01*
X225543904Y-68270476D01*
X225496285Y-68365714D01*
X225448666Y-68413333D01*
X225353428Y-68460952D01*
X225162952Y-68460952D01*
X225067714Y-68508571D01*
X225020095Y-68556190D01*
X224972476Y-68651428D01*
X224972476Y-68841904D01*
X225020095Y-68937142D01*
X225067714Y-68984761D01*
X225162952Y-69032380D01*
X225353428Y-69032380D01*
X225448666Y-68984761D01*
X225496285Y-68937142D01*
X225543904Y-68841904D01*
X225543904Y-68651428D01*
X225496285Y-68556190D01*
X225448666Y-68508571D01*
X225353428Y-68460952D01*
X236339142Y-69032380D02*
X236005809Y-68556190D01*
X235767714Y-69032380D02*
X235767714Y-68032380D01*
X236148666Y-68032380D01*
X236243904Y-68080000D01*
X236291523Y-68127619D01*
X236339142Y-68222857D01*
X236339142Y-68365714D01*
X236291523Y-68460952D01*
X236243904Y-68508571D01*
X236148666Y-68556190D01*
X235767714Y-68556190D01*
X236720095Y-68127619D02*
X236767714Y-68080000D01*
X236862952Y-68032380D01*
X237101047Y-68032380D01*
X237196285Y-68080000D01*
X237243904Y-68127619D01*
X237291523Y-68222857D01*
X237291523Y-68318095D01*
X237243904Y-68460952D01*
X236672476Y-69032380D01*
X237291523Y-69032380D01*
X237767714Y-69032380D02*
X237958190Y-69032380D01*
X238053428Y-68984761D01*
X238101047Y-68937142D01*
X238196285Y-68794285D01*
X238243904Y-68603809D01*
X238243904Y-68222857D01*
X238196285Y-68127619D01*
X238148666Y-68080000D01*
X238053428Y-68032380D01*
X237862952Y-68032380D01*
X237767714Y-68080000D01*
X237720095Y-68127619D01*
X237672476Y-68222857D01*
X237672476Y-68460952D01*
X237720095Y-68556190D01*
X237767714Y-68603809D01*
X237862952Y-68651428D01*
X238053428Y-68651428D01*
X238148666Y-68603809D01*
X238196285Y-68556190D01*
X238243904Y-68460952D01*
X233037142Y-69032380D02*
X232703809Y-68556190D01*
X232465714Y-69032380D02*
X232465714Y-68032380D01*
X232846666Y-68032380D01*
X232941904Y-68080000D01*
X232989523Y-68127619D01*
X233037142Y-68222857D01*
X233037142Y-68365714D01*
X232989523Y-68460952D01*
X232941904Y-68508571D01*
X232846666Y-68556190D01*
X232465714Y-68556190D01*
X233370476Y-68032380D02*
X233989523Y-68032380D01*
X233656190Y-68413333D01*
X233799047Y-68413333D01*
X233894285Y-68460952D01*
X233941904Y-68508571D01*
X233989523Y-68603809D01*
X233989523Y-68841904D01*
X233941904Y-68937142D01*
X233894285Y-68984761D01*
X233799047Y-69032380D01*
X233513333Y-69032380D01*
X233418095Y-68984761D01*
X233370476Y-68937142D01*
X234608571Y-68032380D02*
X234703809Y-68032380D01*
X234799047Y-68080000D01*
X234846666Y-68127619D01*
X234894285Y-68222857D01*
X234941904Y-68413333D01*
X234941904Y-68651428D01*
X234894285Y-68841904D01*
X234846666Y-68937142D01*
X234799047Y-68984761D01*
X234703809Y-69032380D01*
X234608571Y-69032380D01*
X234513333Y-68984761D01*
X234465714Y-68937142D01*
X234418095Y-68841904D01*
X234370476Y-68651428D01*
X234370476Y-68413333D01*
X234418095Y-68222857D01*
X234465714Y-68127619D01*
X234513333Y-68080000D01*
X234608571Y-68032380D01*
X195191142Y-69032380D02*
X194857809Y-68556190D01*
X194619714Y-69032380D02*
X194619714Y-68032380D01*
X195000666Y-68032380D01*
X195095904Y-68080000D01*
X195143523Y-68127619D01*
X195191142Y-68222857D01*
X195191142Y-68365714D01*
X195143523Y-68460952D01*
X195095904Y-68508571D01*
X195000666Y-68556190D01*
X194619714Y-68556190D01*
X195524476Y-68032380D02*
X196143523Y-68032380D01*
X195810190Y-68413333D01*
X195953047Y-68413333D01*
X196048285Y-68460952D01*
X196095904Y-68508571D01*
X196143523Y-68603809D01*
X196143523Y-68841904D01*
X196095904Y-68937142D01*
X196048285Y-68984761D01*
X195953047Y-69032380D01*
X195667333Y-69032380D01*
X195572095Y-68984761D01*
X195524476Y-68937142D01*
X197095904Y-69032380D02*
X196524476Y-69032380D01*
X196810190Y-69032380D02*
X196810190Y-68032380D01*
X196714952Y-68175238D01*
X196619714Y-68270476D01*
X196524476Y-68318095D01*
X198239142Y-69032380D02*
X197905809Y-68556190D01*
X197667714Y-69032380D02*
X197667714Y-68032380D01*
X198048666Y-68032380D01*
X198143904Y-68080000D01*
X198191523Y-68127619D01*
X198239142Y-68222857D01*
X198239142Y-68365714D01*
X198191523Y-68460952D01*
X198143904Y-68508571D01*
X198048666Y-68556190D01*
X197667714Y-68556190D01*
X198572476Y-68032380D02*
X199191523Y-68032380D01*
X198858190Y-68413333D01*
X199001047Y-68413333D01*
X199096285Y-68460952D01*
X199143904Y-68508571D01*
X199191523Y-68603809D01*
X199191523Y-68841904D01*
X199143904Y-68937142D01*
X199096285Y-68984761D01*
X199001047Y-69032380D01*
X198715333Y-69032380D01*
X198620095Y-68984761D01*
X198572476Y-68937142D01*
X199572476Y-68127619D02*
X199620095Y-68080000D01*
X199715333Y-68032380D01*
X199953428Y-68032380D01*
X200048666Y-68080000D01*
X200096285Y-68127619D01*
X200143904Y-68222857D01*
X200143904Y-68318095D01*
X200096285Y-68460952D01*
X199524857Y-69032380D01*
X200143904Y-69032380D01*
X185285142Y-69032380D02*
X184951809Y-68556190D01*
X184713714Y-69032380D02*
X184713714Y-68032380D01*
X185094666Y-68032380D01*
X185189904Y-68080000D01*
X185237523Y-68127619D01*
X185285142Y-68222857D01*
X185285142Y-68365714D01*
X185237523Y-68460952D01*
X185189904Y-68508571D01*
X185094666Y-68556190D01*
X184713714Y-68556190D01*
X185618476Y-68032380D02*
X186237523Y-68032380D01*
X185904190Y-68413333D01*
X186047047Y-68413333D01*
X186142285Y-68460952D01*
X186189904Y-68508571D01*
X186237523Y-68603809D01*
X186237523Y-68841904D01*
X186189904Y-68937142D01*
X186142285Y-68984761D01*
X186047047Y-69032380D01*
X185761333Y-69032380D01*
X185666095Y-68984761D01*
X185618476Y-68937142D01*
X186570857Y-68032380D02*
X187189904Y-68032380D01*
X186856571Y-68413333D01*
X186999428Y-68413333D01*
X187094666Y-68460952D01*
X187142285Y-68508571D01*
X187189904Y-68603809D01*
X187189904Y-68841904D01*
X187142285Y-68937142D01*
X187094666Y-68984761D01*
X186999428Y-69032380D01*
X186713714Y-69032380D01*
X186618476Y-68984761D01*
X186570857Y-68937142D01*
X182237142Y-69032380D02*
X181903809Y-68556190D01*
X181665714Y-69032380D02*
X181665714Y-68032380D01*
X182046666Y-68032380D01*
X182141904Y-68080000D01*
X182189523Y-68127619D01*
X182237142Y-68222857D01*
X182237142Y-68365714D01*
X182189523Y-68460952D01*
X182141904Y-68508571D01*
X182046666Y-68556190D01*
X181665714Y-68556190D01*
X182570476Y-68032380D02*
X183189523Y-68032380D01*
X182856190Y-68413333D01*
X182999047Y-68413333D01*
X183094285Y-68460952D01*
X183141904Y-68508571D01*
X183189523Y-68603809D01*
X183189523Y-68841904D01*
X183141904Y-68937142D01*
X183094285Y-68984761D01*
X182999047Y-69032380D01*
X182713333Y-69032380D01*
X182618095Y-68984761D01*
X182570476Y-68937142D01*
X184046666Y-68365714D02*
X184046666Y-69032380D01*
X183808571Y-67984761D02*
X183570476Y-68699047D01*
X184189523Y-68699047D01*
X179189142Y-69032380D02*
X178855809Y-68556190D01*
X178617714Y-69032380D02*
X178617714Y-68032380D01*
X178998666Y-68032380D01*
X179093904Y-68080000D01*
X179141523Y-68127619D01*
X179189142Y-68222857D01*
X179189142Y-68365714D01*
X179141523Y-68460952D01*
X179093904Y-68508571D01*
X178998666Y-68556190D01*
X178617714Y-68556190D01*
X179522476Y-68032380D02*
X180141523Y-68032380D01*
X179808190Y-68413333D01*
X179951047Y-68413333D01*
X180046285Y-68460952D01*
X180093904Y-68508571D01*
X180141523Y-68603809D01*
X180141523Y-68841904D01*
X180093904Y-68937142D01*
X180046285Y-68984761D01*
X179951047Y-69032380D01*
X179665333Y-69032380D01*
X179570095Y-68984761D01*
X179522476Y-68937142D01*
X181046285Y-68032380D02*
X180570095Y-68032380D01*
X180522476Y-68508571D01*
X180570095Y-68460952D01*
X180665333Y-68413333D01*
X180903428Y-68413333D01*
X180998666Y-68460952D01*
X181046285Y-68508571D01*
X181093904Y-68603809D01*
X181093904Y-68841904D01*
X181046285Y-68937142D01*
X180998666Y-68984761D01*
X180903428Y-69032380D01*
X180665333Y-69032380D01*
X180570095Y-68984761D01*
X180522476Y-68937142D01*
X191889142Y-69032380D02*
X191555809Y-68556190D01*
X191317714Y-69032380D02*
X191317714Y-68032380D01*
X191698666Y-68032380D01*
X191793904Y-68080000D01*
X191841523Y-68127619D01*
X191889142Y-68222857D01*
X191889142Y-68365714D01*
X191841523Y-68460952D01*
X191793904Y-68508571D01*
X191698666Y-68556190D01*
X191317714Y-68556190D01*
X192222476Y-68032380D02*
X192841523Y-68032380D01*
X192508190Y-68413333D01*
X192651047Y-68413333D01*
X192746285Y-68460952D01*
X192793904Y-68508571D01*
X192841523Y-68603809D01*
X192841523Y-68841904D01*
X192793904Y-68937142D01*
X192746285Y-68984761D01*
X192651047Y-69032380D01*
X192365333Y-69032380D01*
X192270095Y-68984761D01*
X192222476Y-68937142D01*
X193698666Y-68032380D02*
X193508190Y-68032380D01*
X193412952Y-68080000D01*
X193365333Y-68127619D01*
X193270095Y-68270476D01*
X193222476Y-68460952D01*
X193222476Y-68841904D01*
X193270095Y-68937142D01*
X193317714Y-68984761D01*
X193412952Y-69032380D01*
X193603428Y-69032380D01*
X193698666Y-68984761D01*
X193746285Y-68937142D01*
X193793904Y-68841904D01*
X193793904Y-68603809D01*
X193746285Y-68508571D01*
X193698666Y-68460952D01*
X193603428Y-68413333D01*
X193412952Y-68413333D01*
X193317714Y-68460952D01*
X193270095Y-68508571D01*
X193222476Y-68603809D01*
X188587142Y-69032380D02*
X188253809Y-68556190D01*
X188015714Y-69032380D02*
X188015714Y-68032380D01*
X188396666Y-68032380D01*
X188491904Y-68080000D01*
X188539523Y-68127619D01*
X188587142Y-68222857D01*
X188587142Y-68365714D01*
X188539523Y-68460952D01*
X188491904Y-68508571D01*
X188396666Y-68556190D01*
X188015714Y-68556190D01*
X188920476Y-68032380D02*
X189539523Y-68032380D01*
X189206190Y-68413333D01*
X189349047Y-68413333D01*
X189444285Y-68460952D01*
X189491904Y-68508571D01*
X189539523Y-68603809D01*
X189539523Y-68841904D01*
X189491904Y-68937142D01*
X189444285Y-68984761D01*
X189349047Y-69032380D01*
X189063333Y-69032380D01*
X188968095Y-68984761D01*
X188920476Y-68937142D01*
X189872857Y-68032380D02*
X190539523Y-68032380D01*
X190110952Y-69032380D01*
X150487142Y-69032380D02*
X150153809Y-68556190D01*
X149915714Y-69032380D02*
X149915714Y-68032380D01*
X150296666Y-68032380D01*
X150391904Y-68080000D01*
X150439523Y-68127619D01*
X150487142Y-68222857D01*
X150487142Y-68365714D01*
X150439523Y-68460952D01*
X150391904Y-68508571D01*
X150296666Y-68556190D01*
X149915714Y-68556190D01*
X150820476Y-68032380D02*
X151439523Y-68032380D01*
X151106190Y-68413333D01*
X151249047Y-68413333D01*
X151344285Y-68460952D01*
X151391904Y-68508571D01*
X151439523Y-68603809D01*
X151439523Y-68841904D01*
X151391904Y-68937142D01*
X151344285Y-68984761D01*
X151249047Y-69032380D01*
X150963333Y-69032380D01*
X150868095Y-68984761D01*
X150820476Y-68937142D01*
X152010952Y-68460952D02*
X151915714Y-68413333D01*
X151868095Y-68365714D01*
X151820476Y-68270476D01*
X151820476Y-68222857D01*
X151868095Y-68127619D01*
X151915714Y-68080000D01*
X152010952Y-68032380D01*
X152201428Y-68032380D01*
X152296666Y-68080000D01*
X152344285Y-68127619D01*
X152391904Y-68222857D01*
X152391904Y-68270476D01*
X152344285Y-68365714D01*
X152296666Y-68413333D01*
X152201428Y-68460952D01*
X152010952Y-68460952D01*
X151915714Y-68508571D01*
X151868095Y-68556190D01*
X151820476Y-68651428D01*
X151820476Y-68841904D01*
X151868095Y-68937142D01*
X151915714Y-68984761D01*
X152010952Y-69032380D01*
X152201428Y-69032380D01*
X152296666Y-68984761D01*
X152344285Y-68937142D01*
X152391904Y-68841904D01*
X152391904Y-68651428D01*
X152344285Y-68556190D01*
X152296666Y-68508571D01*
X152201428Y-68460952D01*
X153789142Y-69032380D02*
X153455809Y-68556190D01*
X153217714Y-69032380D02*
X153217714Y-68032380D01*
X153598666Y-68032380D01*
X153693904Y-68080000D01*
X153741523Y-68127619D01*
X153789142Y-68222857D01*
X153789142Y-68365714D01*
X153741523Y-68460952D01*
X153693904Y-68508571D01*
X153598666Y-68556190D01*
X153217714Y-68556190D01*
X154122476Y-68032380D02*
X154741523Y-68032380D01*
X154408190Y-68413333D01*
X154551047Y-68413333D01*
X154646285Y-68460952D01*
X154693904Y-68508571D01*
X154741523Y-68603809D01*
X154741523Y-68841904D01*
X154693904Y-68937142D01*
X154646285Y-68984761D01*
X154551047Y-69032380D01*
X154265333Y-69032380D01*
X154170095Y-68984761D01*
X154122476Y-68937142D01*
X155217714Y-69032380D02*
X155408190Y-69032380D01*
X155503428Y-68984761D01*
X155551047Y-68937142D01*
X155646285Y-68794285D01*
X155693904Y-68603809D01*
X155693904Y-68222857D01*
X155646285Y-68127619D01*
X155598666Y-68080000D01*
X155503428Y-68032380D01*
X155312952Y-68032380D01*
X155217714Y-68080000D01*
X155170095Y-68127619D01*
X155122476Y-68222857D01*
X155122476Y-68460952D01*
X155170095Y-68556190D01*
X155217714Y-68603809D01*
X155312952Y-68651428D01*
X155503428Y-68651428D01*
X155598666Y-68603809D01*
X155646285Y-68556190D01*
X155693904Y-68460952D01*
X141089142Y-69032380D02*
X140755809Y-68556190D01*
X140517714Y-69032380D02*
X140517714Y-68032380D01*
X140898666Y-68032380D01*
X140993904Y-68080000D01*
X141041523Y-68127619D01*
X141089142Y-68222857D01*
X141089142Y-68365714D01*
X141041523Y-68460952D01*
X140993904Y-68508571D01*
X140898666Y-68556190D01*
X140517714Y-68556190D01*
X141946285Y-68365714D02*
X141946285Y-69032380D01*
X141708190Y-67984761D02*
X141470095Y-68699047D01*
X142089142Y-68699047D01*
X142660571Y-68032380D02*
X142755809Y-68032380D01*
X142851047Y-68080000D01*
X142898666Y-68127619D01*
X142946285Y-68222857D01*
X142993904Y-68413333D01*
X142993904Y-68651428D01*
X142946285Y-68841904D01*
X142898666Y-68937142D01*
X142851047Y-68984761D01*
X142755809Y-69032380D01*
X142660571Y-69032380D01*
X142565333Y-68984761D01*
X142517714Y-68937142D01*
X142470095Y-68841904D01*
X142422476Y-68651428D01*
X142422476Y-68413333D01*
X142470095Y-68222857D01*
X142517714Y-68127619D01*
X142565333Y-68080000D01*
X142660571Y-68032380D01*
X138041142Y-69032380D02*
X137707809Y-68556190D01*
X137469714Y-69032380D02*
X137469714Y-68032380D01*
X137850666Y-68032380D01*
X137945904Y-68080000D01*
X137993523Y-68127619D01*
X138041142Y-68222857D01*
X138041142Y-68365714D01*
X137993523Y-68460952D01*
X137945904Y-68508571D01*
X137850666Y-68556190D01*
X137469714Y-68556190D01*
X138898285Y-68365714D02*
X138898285Y-69032380D01*
X138660190Y-67984761D02*
X138422095Y-68699047D01*
X139041142Y-68699047D01*
X139945904Y-69032380D02*
X139374476Y-69032380D01*
X139660190Y-69032380D02*
X139660190Y-68032380D01*
X139564952Y-68175238D01*
X139469714Y-68270476D01*
X139374476Y-68318095D01*
X134739142Y-69032380D02*
X134405809Y-68556190D01*
X134167714Y-69032380D02*
X134167714Y-68032380D01*
X134548666Y-68032380D01*
X134643904Y-68080000D01*
X134691523Y-68127619D01*
X134739142Y-68222857D01*
X134739142Y-68365714D01*
X134691523Y-68460952D01*
X134643904Y-68508571D01*
X134548666Y-68556190D01*
X134167714Y-68556190D01*
X135596285Y-68365714D02*
X135596285Y-69032380D01*
X135358190Y-67984761D02*
X135120095Y-68699047D01*
X135739142Y-68699047D01*
X136072476Y-68127619D02*
X136120095Y-68080000D01*
X136215333Y-68032380D01*
X136453428Y-68032380D01*
X136548666Y-68080000D01*
X136596285Y-68127619D01*
X136643904Y-68222857D01*
X136643904Y-68318095D01*
X136596285Y-68460952D01*
X136024857Y-69032380D01*
X136643904Y-69032380D01*
X147439142Y-69032380D02*
X147105809Y-68556190D01*
X146867714Y-69032380D02*
X146867714Y-68032380D01*
X147248666Y-68032380D01*
X147343904Y-68080000D01*
X147391523Y-68127619D01*
X147439142Y-68222857D01*
X147439142Y-68365714D01*
X147391523Y-68460952D01*
X147343904Y-68508571D01*
X147248666Y-68556190D01*
X146867714Y-68556190D01*
X148296285Y-68365714D02*
X148296285Y-69032380D01*
X148058190Y-67984761D02*
X147820095Y-68699047D01*
X148439142Y-68699047D01*
X148724857Y-68032380D02*
X149343904Y-68032380D01*
X149010571Y-68413333D01*
X149153428Y-68413333D01*
X149248666Y-68460952D01*
X149296285Y-68508571D01*
X149343904Y-68603809D01*
X149343904Y-68841904D01*
X149296285Y-68937142D01*
X149248666Y-68984761D01*
X149153428Y-69032380D01*
X148867714Y-69032380D01*
X148772476Y-68984761D01*
X148724857Y-68937142D01*
X144391142Y-69032380D02*
X144057809Y-68556190D01*
X143819714Y-69032380D02*
X143819714Y-68032380D01*
X144200666Y-68032380D01*
X144295904Y-68080000D01*
X144343523Y-68127619D01*
X144391142Y-68222857D01*
X144391142Y-68365714D01*
X144343523Y-68460952D01*
X144295904Y-68508571D01*
X144200666Y-68556190D01*
X143819714Y-68556190D01*
X145248285Y-68365714D02*
X145248285Y-69032380D01*
X145010190Y-67984761D02*
X144772095Y-68699047D01*
X145391142Y-68699047D01*
X146200666Y-68365714D02*
X146200666Y-69032380D01*
X145962571Y-67984761D02*
X145724476Y-68699047D01*
X146343523Y-68699047D01*
X245324380Y-75660095D02*
X246133904Y-75660095D01*
X246229142Y-75612476D01*
X246276761Y-75564857D01*
X246324380Y-75469619D01*
X246324380Y-75279142D01*
X246276761Y-75183904D01*
X246229142Y-75136285D01*
X246133904Y-75088666D01*
X245324380Y-75088666D01*
X246324380Y-74088666D02*
X246324380Y-74660095D01*
X246324380Y-74374380D02*
X245324380Y-74374380D01*
X245467238Y-74469619D01*
X245562476Y-74564857D01*
X245610095Y-74660095D01*
X245657714Y-73231523D02*
X246324380Y-73231523D01*
X245276761Y-73469619D02*
X245991047Y-73707714D01*
X245991047Y-73088666D01*
X216869380Y-82010095D02*
X217678904Y-82010095D01*
X217774142Y-81962476D01*
X217821761Y-81914857D01*
X217869380Y-81819619D01*
X217869380Y-81629142D01*
X217821761Y-81533904D01*
X217774142Y-81486285D01*
X217678904Y-81438666D01*
X216869380Y-81438666D01*
X217869380Y-80438666D02*
X217869380Y-81010095D01*
X217869380Y-80724380D02*
X216869380Y-80724380D01*
X217012238Y-80819619D01*
X217107476Y-80914857D01*
X217155095Y-81010095D01*
X216869380Y-79533904D02*
X216869380Y-80010095D01*
X217345571Y-80057714D01*
X217297952Y-80010095D01*
X217250333Y-79914857D01*
X217250333Y-79676761D01*
X217297952Y-79581523D01*
X217345571Y-79533904D01*
X217440809Y-79486285D01*
X217678904Y-79486285D01*
X217774142Y-79533904D01*
X217821761Y-79581523D01*
X217869380Y-79676761D01*
X217869380Y-79914857D01*
X217821761Y-80010095D01*
X217774142Y-80057714D01*
X214082380Y-82010095D02*
X214891904Y-82010095D01*
X214987142Y-81962476D01*
X215034761Y-81914857D01*
X215082380Y-81819619D01*
X215082380Y-81629142D01*
X215034761Y-81533904D01*
X214987142Y-81486285D01*
X214891904Y-81438666D01*
X214082380Y-81438666D01*
X215082380Y-80438666D02*
X215082380Y-81010095D01*
X215082380Y-80724380D02*
X214082380Y-80724380D01*
X214225238Y-80819619D01*
X214320476Y-80914857D01*
X214368095Y-81010095D01*
X214082380Y-79581523D02*
X214082380Y-79772000D01*
X214130000Y-79867238D01*
X214177619Y-79914857D01*
X214320476Y-80010095D01*
X214510952Y-80057714D01*
X214891904Y-80057714D01*
X214987142Y-80010095D01*
X215034761Y-79962476D01*
X215082380Y-79867238D01*
X215082380Y-79676761D01*
X215034761Y-79581523D01*
X214987142Y-79533904D01*
X214891904Y-79486285D01*
X214653809Y-79486285D01*
X214558571Y-79533904D01*
X214510952Y-79581523D01*
X214463333Y-79676761D01*
X214463333Y-79867238D01*
X214510952Y-79962476D01*
X214558571Y-80010095D01*
X214653809Y-80057714D01*
X185754380Y-82010095D02*
X186563904Y-82010095D01*
X186659142Y-81962476D01*
X186706761Y-81914857D01*
X186754380Y-81819619D01*
X186754380Y-81629142D01*
X186706761Y-81533904D01*
X186659142Y-81486285D01*
X186563904Y-81438666D01*
X185754380Y-81438666D01*
X186754380Y-80438666D02*
X186754380Y-81010095D01*
X186754380Y-80724380D02*
X185754380Y-80724380D01*
X185897238Y-80819619D01*
X185992476Y-80914857D01*
X186040095Y-81010095D01*
X185754380Y-80105333D02*
X185754380Y-79438666D01*
X186754380Y-79867238D01*
X183094380Y-82010095D02*
X183903904Y-82010095D01*
X183999142Y-81962476D01*
X184046761Y-81914857D01*
X184094380Y-81819619D01*
X184094380Y-81629142D01*
X184046761Y-81533904D01*
X183999142Y-81486285D01*
X183903904Y-81438666D01*
X183094380Y-81438666D01*
X184094380Y-80438666D02*
X184094380Y-81010095D01*
X184094380Y-80724380D02*
X183094380Y-80724380D01*
X183237238Y-80819619D01*
X183332476Y-80914857D01*
X183380095Y-81010095D01*
X183522952Y-79867238D02*
X183475333Y-79962476D01*
X183427714Y-80010095D01*
X183332476Y-80057714D01*
X183284857Y-80057714D01*
X183189619Y-80010095D01*
X183142000Y-79962476D01*
X183094380Y-79867238D01*
X183094380Y-79676761D01*
X183142000Y-79581523D01*
X183189619Y-79533904D01*
X183284857Y-79486285D01*
X183332476Y-79486285D01*
X183427714Y-79533904D01*
X183475333Y-79581523D01*
X183522952Y-79676761D01*
X183522952Y-79867238D01*
X183570571Y-79962476D01*
X183618190Y-80010095D01*
X183713428Y-80057714D01*
X183903904Y-80057714D01*
X183999142Y-80010095D01*
X184046761Y-79962476D01*
X184094380Y-79867238D01*
X184094380Y-79676761D01*
X184046761Y-79581523D01*
X183999142Y-79533904D01*
X183903904Y-79486285D01*
X183713428Y-79486285D01*
X183618190Y-79533904D01*
X183570571Y-79581523D01*
X183522952Y-79676761D01*
X154639380Y-82010095D02*
X155448904Y-82010095D01*
X155544142Y-81962476D01*
X155591761Y-81914857D01*
X155639380Y-81819619D01*
X155639380Y-81629142D01*
X155591761Y-81533904D01*
X155544142Y-81486285D01*
X155448904Y-81438666D01*
X154639380Y-81438666D01*
X155639380Y-80438666D02*
X155639380Y-81010095D01*
X155639380Y-80724380D02*
X154639380Y-80724380D01*
X154782238Y-80819619D01*
X154877476Y-80914857D01*
X154925095Y-81010095D01*
X155639380Y-79962476D02*
X155639380Y-79772000D01*
X155591761Y-79676761D01*
X155544142Y-79629142D01*
X155401285Y-79533904D01*
X155210809Y-79486285D01*
X154829857Y-79486285D01*
X154734619Y-79533904D01*
X154687000Y-79581523D01*
X154639380Y-79676761D01*
X154639380Y-79867238D01*
X154687000Y-79962476D01*
X154734619Y-80010095D01*
X154829857Y-80057714D01*
X155067952Y-80057714D01*
X155163190Y-80010095D01*
X155210809Y-79962476D01*
X155258428Y-79867238D01*
X155258428Y-79676761D01*
X155210809Y-79581523D01*
X155163190Y-79533904D01*
X155067952Y-79486285D01*
X245626190Y-78954380D02*
X246292857Y-79954380D01*
X246292857Y-78954380D02*
X245626190Y-79954380D01*
X246530952Y-78954380D02*
X247102380Y-78954380D01*
X246816666Y-79954380D02*
X246816666Y-78954380D01*
X247388095Y-79668666D02*
X247864285Y-79668666D01*
X247292857Y-79954380D02*
X247626190Y-78954380D01*
X247959523Y-79954380D01*
X248769047Y-79954380D02*
X248292857Y-79954380D01*
X248292857Y-78954380D01*
X249626190Y-79954380D02*
X249054761Y-79954380D01*
X249340476Y-79954380D02*
X249340476Y-78954380D01*
X249245238Y-79097238D01*
X249150000Y-79192476D01*
X249054761Y-79240095D01*
X244475095Y-124464380D02*
X244475095Y-125273904D01*
X244522714Y-125369142D01*
X244570333Y-125416761D01*
X244665571Y-125464380D01*
X244856047Y-125464380D01*
X244951285Y-125416761D01*
X244998904Y-125369142D01*
X245046523Y-125273904D01*
X245046523Y-124464380D01*
X246046523Y-125464380D02*
X245475095Y-125464380D01*
X245760809Y-125464380D02*
X245760809Y-124464380D01*
X245665571Y-124607238D01*
X245570333Y-124702476D01*
X245475095Y-124750095D01*
X236859380Y-119633904D02*
X237668904Y-119633904D01*
X237764142Y-119586285D01*
X237811761Y-119538666D01*
X237859380Y-119443428D01*
X237859380Y-119252952D01*
X237811761Y-119157714D01*
X237764142Y-119110095D01*
X237668904Y-119062476D01*
X236859380Y-119062476D01*
X236954619Y-118633904D02*
X236907000Y-118586285D01*
X236859380Y-118491047D01*
X236859380Y-118252952D01*
X236907000Y-118157714D01*
X236954619Y-118110095D01*
X237049857Y-118062476D01*
X237145095Y-118062476D01*
X237287952Y-118110095D01*
X237859380Y-118681523D01*
X237859380Y-118062476D01*
X272419380Y-98678904D02*
X273228904Y-98678904D01*
X273324142Y-98631285D01*
X273371761Y-98583666D01*
X273419380Y-98488428D01*
X273419380Y-98297952D01*
X273371761Y-98202714D01*
X273324142Y-98155095D01*
X273228904Y-98107476D01*
X272419380Y-98107476D01*
X272419380Y-97726523D02*
X272419380Y-97107476D01*
X272800333Y-97440809D01*
X272800333Y-97297952D01*
X272847952Y-97202714D01*
X272895571Y-97155095D01*
X272990809Y-97107476D01*
X273228904Y-97107476D01*
X273324142Y-97155095D01*
X273371761Y-97202714D01*
X273419380Y-97297952D01*
X273419380Y-97583666D01*
X273371761Y-97678904D01*
X273324142Y-97726523D01*
X272419380Y-110108904D02*
X273228904Y-110108904D01*
X273324142Y-110061285D01*
X273371761Y-110013666D01*
X273419380Y-109918428D01*
X273419380Y-109727952D01*
X273371761Y-109632714D01*
X273324142Y-109585095D01*
X273228904Y-109537476D01*
X272419380Y-109537476D01*
X272752714Y-108632714D02*
X273419380Y-108632714D01*
X272371761Y-108870809D02*
X273086047Y-109108904D01*
X273086047Y-108489857D01*
X189019380Y-119633904D02*
X189828904Y-119633904D01*
X189924142Y-119586285D01*
X189971761Y-119538666D01*
X190019380Y-119443428D01*
X190019380Y-119252952D01*
X189971761Y-119157714D01*
X189924142Y-119110095D01*
X189828904Y-119062476D01*
X189019380Y-119062476D01*
X189019380Y-118110095D02*
X189019380Y-118586285D01*
X189495571Y-118633904D01*
X189447952Y-118586285D01*
X189400333Y-118491047D01*
X189400333Y-118252952D01*
X189447952Y-118157714D01*
X189495571Y-118110095D01*
X189590809Y-118062476D01*
X189828904Y-118062476D01*
X189924142Y-118110095D01*
X189971761Y-118157714D01*
X190019380Y-118252952D01*
X190019380Y-118491047D01*
X189971761Y-118586285D01*
X189924142Y-118633904D01*
X147959380Y-110108904D02*
X148768904Y-110108904D01*
X148864142Y-110061285D01*
X148911761Y-110013666D01*
X148959380Y-109918428D01*
X148959380Y-109727952D01*
X148911761Y-109632714D01*
X148864142Y-109585095D01*
X148768904Y-109537476D01*
X147959380Y-109537476D01*
X147959380Y-108632714D02*
X147959380Y-108823190D01*
X148007000Y-108918428D01*
X148054619Y-108966047D01*
X148197476Y-109061285D01*
X148387952Y-109108904D01*
X148768904Y-109108904D01*
X148864142Y-109061285D01*
X148911761Y-109013666D01*
X148959380Y-108918428D01*
X148959380Y-108727952D01*
X148911761Y-108632714D01*
X148864142Y-108585095D01*
X148768904Y-108537476D01*
X148530809Y-108537476D01*
X148435571Y-108585095D01*
X148387952Y-108632714D01*
X148340333Y-108727952D01*
X148340333Y-108918428D01*
X148387952Y-109013666D01*
X148435571Y-109061285D01*
X148530809Y-109108904D01*
X150499380Y-98678904D02*
X151308904Y-98678904D01*
X151404142Y-98631285D01*
X151451761Y-98583666D01*
X151499380Y-98488428D01*
X151499380Y-98297952D01*
X151451761Y-98202714D01*
X151404142Y-98155095D01*
X151308904Y-98107476D01*
X150499380Y-98107476D01*
X150499380Y-97726523D02*
X150499380Y-97059857D01*
X151499380Y-97488428D01*
X270002095Y-69810380D02*
X270002095Y-70619904D01*
X270049714Y-70715142D01*
X270097333Y-70762761D01*
X270192571Y-70810380D01*
X270383047Y-70810380D01*
X270478285Y-70762761D01*
X270525904Y-70715142D01*
X270573523Y-70619904D01*
X270573523Y-69810380D01*
X271192571Y-70238952D02*
X271097333Y-70191333D01*
X271049714Y-70143714D01*
X271002095Y-70048476D01*
X271002095Y-70000857D01*
X271049714Y-69905619D01*
X271097333Y-69858000D01*
X271192571Y-69810380D01*
X271383047Y-69810380D01*
X271478285Y-69858000D01*
X271525904Y-69905619D01*
X271573523Y-70000857D01*
X271573523Y-70048476D01*
X271525904Y-70143714D01*
X271478285Y-70191333D01*
X271383047Y-70238952D01*
X271192571Y-70238952D01*
X271097333Y-70286571D01*
X271049714Y-70334190D01*
X271002095Y-70429428D01*
X271002095Y-70619904D01*
X271049714Y-70715142D01*
X271097333Y-70762761D01*
X271192571Y-70810380D01*
X271383047Y-70810380D01*
X271478285Y-70762761D01*
X271525904Y-70715142D01*
X271573523Y-70619904D01*
X271573523Y-70429428D01*
X271525904Y-70334190D01*
X271478285Y-70286571D01*
X271383047Y-70238952D01*
X215138095Y-112907380D02*
X215138095Y-113716904D01*
X215185714Y-113812142D01*
X215233333Y-113859761D01*
X215328571Y-113907380D01*
X215519047Y-113907380D01*
X215614285Y-113859761D01*
X215661904Y-113812142D01*
X215709523Y-113716904D01*
X215709523Y-112907380D01*
X216233333Y-113907380D02*
X216423809Y-113907380D01*
X216519047Y-113859761D01*
X216566666Y-113812142D01*
X216661904Y-113669285D01*
X216709523Y-113478809D01*
X216709523Y-113097857D01*
X216661904Y-113002619D01*
X216614285Y-112955000D01*
X216519047Y-112907380D01*
X216328571Y-112907380D01*
X216233333Y-112955000D01*
X216185714Y-113002619D01*
X216138095Y-113097857D01*
X216138095Y-113335952D01*
X216185714Y-113431190D01*
X216233333Y-113478809D01*
X216328571Y-113526428D01*
X216519047Y-113526428D01*
X216614285Y-113478809D01*
X216661904Y-113431190D01*
X216709523Y-113335952D01*
X254158904Y-69639380D02*
X254158904Y-70448904D01*
X254206523Y-70544142D01*
X254254142Y-70591761D01*
X254349380Y-70639380D01*
X254539857Y-70639380D01*
X254635095Y-70591761D01*
X254682714Y-70544142D01*
X254730333Y-70448904D01*
X254730333Y-69639380D01*
X255730333Y-70639380D02*
X255158904Y-70639380D01*
X255444619Y-70639380D02*
X255444619Y-69639380D01*
X255349380Y-69782238D01*
X255254142Y-69877476D01*
X255158904Y-69925095D01*
X256682714Y-70639380D02*
X256111285Y-70639380D01*
X256397000Y-70639380D02*
X256397000Y-69639380D01*
X256301761Y-69782238D01*
X256206523Y-69877476D01*
X256111285Y-69925095D01*
X183673904Y-113034380D02*
X183673904Y-113843904D01*
X183721523Y-113939142D01*
X183769142Y-113986761D01*
X183864380Y-114034380D01*
X184054857Y-114034380D01*
X184150095Y-113986761D01*
X184197714Y-113939142D01*
X184245333Y-113843904D01*
X184245333Y-113034380D01*
X185245333Y-114034380D02*
X184673904Y-114034380D01*
X184959619Y-114034380D02*
X184959619Y-113034380D01*
X184864380Y-113177238D01*
X184769142Y-113272476D01*
X184673904Y-113320095D01*
X185626285Y-113129619D02*
X185673904Y-113082000D01*
X185769142Y-113034380D01*
X186007238Y-113034380D01*
X186102476Y-113082000D01*
X186150095Y-113129619D01*
X186197714Y-113224857D01*
X186197714Y-113320095D01*
X186150095Y-113462952D01*
X185578666Y-114034380D01*
X186197714Y-114034380D01*
X129825904Y-69556380D02*
X129825904Y-70365904D01*
X129873523Y-70461142D01*
X129921142Y-70508761D01*
X130016380Y-70556380D01*
X130206857Y-70556380D01*
X130302095Y-70508761D01*
X130349714Y-70461142D01*
X130397333Y-70365904D01*
X130397333Y-69556380D01*
X131397333Y-70556380D02*
X130825904Y-70556380D01*
X131111619Y-70556380D02*
X131111619Y-69556380D01*
X131016380Y-69699238D01*
X130921142Y-69794476D01*
X130825904Y-69842095D01*
X131730666Y-69556380D02*
X132349714Y-69556380D01*
X132016380Y-69937333D01*
X132159238Y-69937333D01*
X132254476Y-69984952D01*
X132302095Y-70032571D01*
X132349714Y-70127809D01*
X132349714Y-70365904D01*
X132302095Y-70461142D01*
X132254476Y-70508761D01*
X132159238Y-70556380D01*
X131873523Y-70556380D01*
X131778285Y-70508761D01*
X131730666Y-70461142D01*
X168425904Y-106878380D02*
X168425904Y-105878380D01*
X168664000Y-105878380D01*
X168806857Y-105926000D01*
X168902095Y-106021238D01*
X168949714Y-106116476D01*
X168997333Y-106306952D01*
X168997333Y-106449809D01*
X168949714Y-106640285D01*
X168902095Y-106735523D01*
X168806857Y-106830761D01*
X168664000Y-106878380D01*
X168425904Y-106878380D01*
X169949714Y-106878380D02*
X169378285Y-106878380D01*
X169664000Y-106878380D02*
X169664000Y-105878380D01*
X169568761Y-106021238D01*
X169473523Y-106116476D01*
X169378285Y-106164095D01*
X194587904Y-106878380D02*
X194587904Y-105878380D01*
X194826000Y-105878380D01*
X194968857Y-105926000D01*
X195064095Y-106021238D01*
X195111714Y-106116476D01*
X195159333Y-106306952D01*
X195159333Y-106449809D01*
X195111714Y-106640285D01*
X195064095Y-106735523D01*
X194968857Y-106830761D01*
X194826000Y-106878380D01*
X194587904Y-106878380D01*
X195540285Y-105973619D02*
X195587904Y-105926000D01*
X195683142Y-105878380D01*
X195921238Y-105878380D01*
X196016476Y-105926000D01*
X196064095Y-105973619D01*
X196111714Y-106068857D01*
X196111714Y-106164095D01*
X196064095Y-106306952D01*
X195492666Y-106878380D01*
X196111714Y-106878380D01*
X159499380Y-97289857D02*
X159023190Y-97623190D01*
X159499380Y-97861285D02*
X158499380Y-97861285D01*
X158499380Y-97480333D01*
X158547000Y-97385095D01*
X158594619Y-97337476D01*
X158689857Y-97289857D01*
X158832714Y-97289857D01*
X158927952Y-97337476D01*
X158975571Y-97385095D01*
X159023190Y-97480333D01*
X159023190Y-97861285D01*
X158832714Y-96432714D02*
X159499380Y-96432714D01*
X158451761Y-96670809D02*
X159166047Y-96908904D01*
X159166047Y-96289857D01*
X158499380Y-95432714D02*
X158499380Y-95908904D01*
X158975571Y-95956523D01*
X158927952Y-95908904D01*
X158880333Y-95813666D01*
X158880333Y-95575571D01*
X158927952Y-95480333D01*
X158975571Y-95432714D01*
X159070809Y-95385095D01*
X159308904Y-95385095D01*
X159404142Y-95432714D01*
X159451761Y-95480333D01*
X159499380Y-95575571D01*
X159499380Y-95813666D01*
X159451761Y-95908904D01*
X159404142Y-95956523D01*
X191889142Y-102814380D02*
X191555809Y-102338190D01*
X191317714Y-102814380D02*
X191317714Y-101814380D01*
X191698666Y-101814380D01*
X191793904Y-101862000D01*
X191841523Y-101909619D01*
X191889142Y-102004857D01*
X191889142Y-102147714D01*
X191841523Y-102242952D01*
X191793904Y-102290571D01*
X191698666Y-102338190D01*
X191317714Y-102338190D01*
X192746285Y-102147714D02*
X192746285Y-102814380D01*
X192508190Y-101766761D02*
X192270095Y-102481047D01*
X192889142Y-102481047D01*
X193698666Y-101814380D02*
X193508190Y-101814380D01*
X193412952Y-101862000D01*
X193365333Y-101909619D01*
X193270095Y-102052476D01*
X193222476Y-102242952D01*
X193222476Y-102623904D01*
X193270095Y-102719142D01*
X193317714Y-102766761D01*
X193412952Y-102814380D01*
X193603428Y-102814380D01*
X193698666Y-102766761D01*
X193746285Y-102719142D01*
X193793904Y-102623904D01*
X193793904Y-102385809D01*
X193746285Y-102290571D01*
X193698666Y-102242952D01*
X193603428Y-102195333D01*
X193412952Y-102195333D01*
X193317714Y-102242952D01*
X193270095Y-102290571D01*
X193222476Y-102385809D01*
X176649142Y-102814380D02*
X176315809Y-102338190D01*
X176077714Y-102814380D02*
X176077714Y-101814380D01*
X176458666Y-101814380D01*
X176553904Y-101862000D01*
X176601523Y-101909619D01*
X176649142Y-102004857D01*
X176649142Y-102147714D01*
X176601523Y-102242952D01*
X176553904Y-102290571D01*
X176458666Y-102338190D01*
X176077714Y-102338190D01*
X177506285Y-102147714D02*
X177506285Y-102814380D01*
X177268190Y-101766761D02*
X177030095Y-102481047D01*
X177649142Y-102481047D01*
X177934857Y-101814380D02*
X178601523Y-101814380D01*
X178172952Y-102814380D01*
X207891142Y-102814380D02*
X207557809Y-102338190D01*
X207319714Y-102814380D02*
X207319714Y-101814380D01*
X207700666Y-101814380D01*
X207795904Y-101862000D01*
X207843523Y-101909619D01*
X207891142Y-102004857D01*
X207891142Y-102147714D01*
X207843523Y-102242952D01*
X207795904Y-102290571D01*
X207700666Y-102338190D01*
X207319714Y-102338190D01*
X208748285Y-102147714D02*
X208748285Y-102814380D01*
X208510190Y-101766761D02*
X208272095Y-102481047D01*
X208891142Y-102481047D01*
X209414952Y-102242952D02*
X209319714Y-102195333D01*
X209272095Y-102147714D01*
X209224476Y-102052476D01*
X209224476Y-102004857D01*
X209272095Y-101909619D01*
X209319714Y-101862000D01*
X209414952Y-101814380D01*
X209605428Y-101814380D01*
X209700666Y-101862000D01*
X209748285Y-101909619D01*
X209795904Y-102004857D01*
X209795904Y-102052476D01*
X209748285Y-102147714D01*
X209700666Y-102195333D01*
X209605428Y-102242952D01*
X209414952Y-102242952D01*
X209319714Y-102290571D01*
X209272095Y-102338190D01*
X209224476Y-102433428D01*
X209224476Y-102623904D01*
X209272095Y-102719142D01*
X209319714Y-102766761D01*
X209414952Y-102814380D01*
X209605428Y-102814380D01*
X209700666Y-102766761D01*
X209748285Y-102719142D01*
X209795904Y-102623904D01*
X209795904Y-102433428D01*
X209748285Y-102338190D01*
X209700666Y-102290571D01*
X209605428Y-102242952D01*
X167778666Y-102512761D02*
X167921523Y-102560380D01*
X168159619Y-102560380D01*
X168254857Y-102512761D01*
X168302476Y-102465142D01*
X168350095Y-102369904D01*
X168350095Y-102274666D01*
X168302476Y-102179428D01*
X168254857Y-102131809D01*
X168159619Y-102084190D01*
X167969142Y-102036571D01*
X167873904Y-101988952D01*
X167826285Y-101941333D01*
X167778666Y-101846095D01*
X167778666Y-101750857D01*
X167826285Y-101655619D01*
X167873904Y-101608000D01*
X167969142Y-101560380D01*
X168207238Y-101560380D01*
X168350095Y-101608000D01*
X168683428Y-101560380D02*
X168921523Y-102560380D01*
X169112000Y-101846095D01*
X169302476Y-102560380D01*
X169540571Y-101560380D01*
X170445333Y-102560380D02*
X169873904Y-102560380D01*
X170159619Y-102560380D02*
X170159619Y-101560380D01*
X170064380Y-101703238D01*
X169969142Y-101798476D01*
X169873904Y-101846095D01*
X198893666Y-102512761D02*
X199036523Y-102560380D01*
X199274619Y-102560380D01*
X199369857Y-102512761D01*
X199417476Y-102465142D01*
X199465095Y-102369904D01*
X199465095Y-102274666D01*
X199417476Y-102179428D01*
X199369857Y-102131809D01*
X199274619Y-102084190D01*
X199084142Y-102036571D01*
X198988904Y-101988952D01*
X198941285Y-101941333D01*
X198893666Y-101846095D01*
X198893666Y-101750857D01*
X198941285Y-101655619D01*
X198988904Y-101608000D01*
X199084142Y-101560380D01*
X199322238Y-101560380D01*
X199465095Y-101608000D01*
X199798428Y-101560380D02*
X200036523Y-102560380D01*
X200227000Y-101846095D01*
X200417476Y-102560380D01*
X200655571Y-101560380D01*
X200988904Y-101655619D02*
X201036523Y-101608000D01*
X201131761Y-101560380D01*
X201369857Y-101560380D01*
X201465095Y-101608000D01*
X201512714Y-101655619D01*
X201560333Y-101750857D01*
X201560333Y-101846095D01*
X201512714Y-101988952D01*
X200941285Y-102560380D01*
X201560333Y-102560380D01*
X230060666Y-102512761D02*
X230203523Y-102560380D01*
X230441619Y-102560380D01*
X230536857Y-102512761D01*
X230584476Y-102465142D01*
X230632095Y-102369904D01*
X230632095Y-102274666D01*
X230584476Y-102179428D01*
X230536857Y-102131809D01*
X230441619Y-102084190D01*
X230251142Y-102036571D01*
X230155904Y-101988952D01*
X230108285Y-101941333D01*
X230060666Y-101846095D01*
X230060666Y-101750857D01*
X230108285Y-101655619D01*
X230155904Y-101608000D01*
X230251142Y-101560380D01*
X230489238Y-101560380D01*
X230632095Y-101608000D01*
X230965428Y-101560380D02*
X231203523Y-102560380D01*
X231394000Y-101846095D01*
X231584476Y-102560380D01*
X231822571Y-101560380D01*
X232108285Y-101560380D02*
X232727333Y-101560380D01*
X232394000Y-101941333D01*
X232536857Y-101941333D01*
X232632095Y-101988952D01*
X232679714Y-102036571D01*
X232727333Y-102131809D01*
X232727333Y-102369904D01*
X232679714Y-102465142D01*
X232632095Y-102512761D01*
X232536857Y-102560380D01*
X232251142Y-102560380D01*
X232155904Y-102512761D01*
X232108285Y-102465142D01*
X162984380Y-120110095D02*
X163793904Y-120110095D01*
X163889142Y-120062476D01*
X163936761Y-120014857D01*
X163984380Y-119919619D01*
X163984380Y-119729142D01*
X163936761Y-119633904D01*
X163889142Y-119586285D01*
X163793904Y-119538666D01*
X162984380Y-119538666D01*
X163079619Y-119110095D02*
X163032000Y-119062476D01*
X162984380Y-118967238D01*
X162984380Y-118729142D01*
X163032000Y-118633904D01*
X163079619Y-118586285D01*
X163174857Y-118538666D01*
X163270095Y-118538666D01*
X163412952Y-118586285D01*
X163984380Y-119157714D01*
X163984380Y-118538666D01*
X162984380Y-117919619D02*
X162984380Y-117824380D01*
X163032000Y-117729142D01*
X163079619Y-117681523D01*
X163174857Y-117633904D01*
X163365333Y-117586285D01*
X163603428Y-117586285D01*
X163793904Y-117633904D01*
X163889142Y-117681523D01*
X163936761Y-117729142D01*
X163984380Y-117824380D01*
X163984380Y-117919619D01*
X163936761Y-118014857D01*
X163889142Y-118062476D01*
X163793904Y-118110095D01*
X163603428Y-118157714D01*
X163365333Y-118157714D01*
X163174857Y-118110095D01*
X163079619Y-118062476D01*
X163032000Y-118014857D01*
X162984380Y-117919619D01*
X155098904Y-102024380D02*
X155098904Y-102833904D01*
X155146523Y-102929142D01*
X155194142Y-102976761D01*
X155289380Y-103024380D01*
X155479857Y-103024380D01*
X155575095Y-102976761D01*
X155622714Y-102929142D01*
X155670333Y-102833904D01*
X155670333Y-102024380D01*
X156098904Y-102119619D02*
X156146523Y-102072000D01*
X156241761Y-102024380D01*
X156479857Y-102024380D01*
X156575095Y-102072000D01*
X156622714Y-102119619D01*
X156670333Y-102214857D01*
X156670333Y-102310095D01*
X156622714Y-102452952D01*
X156051285Y-103024380D01*
X156670333Y-103024380D01*
X157622714Y-103024380D02*
X157051285Y-103024380D01*
X157337000Y-103024380D02*
X157337000Y-102024380D01*
X157241761Y-102167238D01*
X157146523Y-102262476D01*
X157051285Y-102310095D01*
X246360333Y-102044142D02*
X246312714Y-102091761D01*
X246169857Y-102139380D01*
X246074619Y-102139380D01*
X245931761Y-102091761D01*
X245836523Y-101996523D01*
X245788904Y-101901285D01*
X245741285Y-101710809D01*
X245741285Y-101567952D01*
X245788904Y-101377476D01*
X245836523Y-101282238D01*
X245931761Y-101187000D01*
X246074619Y-101139380D01*
X246169857Y-101139380D01*
X246312714Y-101187000D01*
X246360333Y-101234619D01*
X247312714Y-102139380D02*
X246741285Y-102139380D01*
X247027000Y-102139380D02*
X247027000Y-101139380D01*
X246931761Y-101282238D01*
X246836523Y-101377476D01*
X246741285Y-101425095D01*
X246320333Y-91964142D02*
X246272714Y-92011761D01*
X246129857Y-92059380D01*
X246034619Y-92059380D01*
X245891761Y-92011761D01*
X245796523Y-91916523D01*
X245748904Y-91821285D01*
X245701285Y-91630809D01*
X245701285Y-91487952D01*
X245748904Y-91297476D01*
X245796523Y-91202238D01*
X245891761Y-91107000D01*
X246034619Y-91059380D01*
X246129857Y-91059380D01*
X246272714Y-91107000D01*
X246320333Y-91154619D01*
X246701285Y-91154619D02*
X246748904Y-91107000D01*
X246844142Y-91059380D01*
X247082238Y-91059380D01*
X247177476Y-91107000D01*
X247225095Y-91154619D01*
X247272714Y-91249857D01*
X247272714Y-91345095D01*
X247225095Y-91487952D01*
X246653666Y-92059380D01*
X247272714Y-92059380D01*
X154773333Y-92813142D02*
X154725714Y-92860761D01*
X154582857Y-92908380D01*
X154487619Y-92908380D01*
X154344761Y-92860761D01*
X154249523Y-92765523D01*
X154201904Y-92670285D01*
X154154285Y-92479809D01*
X154154285Y-92336952D01*
X154201904Y-92146476D01*
X154249523Y-92051238D01*
X154344761Y-91956000D01*
X154487619Y-91908380D01*
X154582857Y-91908380D01*
X154725714Y-91956000D01*
X154773333Y-92003619D01*
X155106666Y-91908380D02*
X155725714Y-91908380D01*
X155392380Y-92289333D01*
X155535238Y-92289333D01*
X155630476Y-92336952D01*
X155678095Y-92384571D01*
X155725714Y-92479809D01*
X155725714Y-92717904D01*
X155678095Y-92813142D01*
X155630476Y-92860761D01*
X155535238Y-92908380D01*
X155249523Y-92908380D01*
X155154285Y-92860761D01*
X155106666Y-92813142D01*
X200640333Y-112839142D02*
X200592714Y-112886761D01*
X200449857Y-112934380D01*
X200354619Y-112934380D01*
X200211761Y-112886761D01*
X200116523Y-112791523D01*
X200068904Y-112696285D01*
X200021285Y-112505809D01*
X200021285Y-112362952D01*
X200068904Y-112172476D01*
X200116523Y-112077238D01*
X200211761Y-111982000D01*
X200354619Y-111934380D01*
X200449857Y-111934380D01*
X200592714Y-111982000D01*
X200640333Y-112029619D01*
X201497476Y-112267714D02*
X201497476Y-112934380D01*
X201259380Y-111886761D02*
X201021285Y-112601047D01*
X201640333Y-112601047D01*
X143724380Y-121237333D02*
X144438666Y-121237333D01*
X144581523Y-121284952D01*
X144676761Y-121380190D01*
X144724380Y-121523047D01*
X144724380Y-121618285D01*
X144724380Y-120237333D02*
X144724380Y-120808761D01*
X144724380Y-120523047D02*
X143724380Y-120523047D01*
X143867238Y-120618285D01*
X143962476Y-120713523D01*
X144010095Y-120808761D01*
M02*
